<?xml version="1.0" encoding="UTF-8"?>
<svg width="15px" height="20px" viewBox="0 0 15 20" version="1.1" xmlns="http://www.w3.org/2000/svg" xmlns:xlink="http://www.w3.org/1999/xlink">
    <title>424ED589-7C4E-42A2-A5D5-F05ECA93E0A5</title>
    <g id="Yanbal-UI-Visual-Kit" stroke="none" stroke-width="1" fill="none" fill-rule="evenodd">
        <g id="03" transform="translate(-484.000000, -392.000000)" fill="#1C1F28">
            <g id="Outline" transform="translate(96.000000, 315.000000)">
                <g id="3.-icons/outline/icon-attach-" transform="translate(388.000000, 77.000000)">
                    <path d="M1.03730024,19 L1.96630024,6 L4.00030024,6 L4.00030024,7.5 C4.00030024,7.776 4.22430024,8 4.50030024,8 C4.77630024,8 5.00030024,7.776 5.00030024,7.5 L5.00030024,6 L10.0003002,6 L10.0003002,7.5 C10.0003002,7.776 10.2243002,8 10.5003002,8 C10.7763002,8 11.0003002,7.776 11.0003002,7.5 L11.0003002,6 L13.0343002,6 L13.9633002,19 L1.03730024,19 Z M5.00030024,3.301 C5.00030024,2.054 6.14430024,1 7.50030024,1 C8.85530024,1 10.0003002,2.054 10.0003002,3.301 L10.0003002,5 L5.00030024,5 L5.00030024,3.301 Z M13.9993002,5.465 C13.9803002,5.203 13.7633002,5 13.5003002,5 L11.0003002,5 L11.0003002,3.301 C11.0003002,1.48 9.43030024,0 7.50030024,0 C5.57030024,0 4.00030024,1.48 4.00030024,3.301 L4.00030024,5 L1.50030024,5 C1.23730024,5 1.01930024,5.203 1.00130024,5.465 L0.00130023854,19.465 C-0.00869976146,19.603 0.0393002385,19.739 0.134300239,19.841 C0.228300239,19.942 0.361300239,20 0.500300239,20 L14.5003002,20 C14.6393002,20 14.7713002,19.942 14.8663002,19.841 C14.9613002,19.739 15.0093002,19.603 14.9993002,19.465 L13.9993002,5.465 Z" id="Fill-1"></path>
                </g>
            </g>
        </g>
    </g>
</svg>