<?xml version="1.0" encoding="UTF-8"?>
<svg width="15px" height="20px" viewBox="0 0 15 20" version="1.1" xmlns="http://www.w3.org/2000/svg" xmlns:xlink="http://www.w3.org/1999/xlink">
    <title>0F895C45-CD22-40B4-893E-B9ECA2A4BF46</title>
    <g id="Yanbal-UI-Visual-Kit" stroke="none" stroke-width="1" fill="none" fill-rule="evenodd">
        <g id="03" transform="translate(-1253.000000, -392.000000)" fill="#1C1F28">
            <g id="Outline" transform="translate(96.000000, 315.000000)">
                <g id="3.-icons/outline/icon-link-arrow" transform="translate(1157.000000, 77.000030)">
                    <path d="M14.631,10.8857704 C14.131,9.46777038 11.604,6.91677038 10.418,5.77277038 C10.77,5.49977038 11,5.07677038 11,4.59877038 C11,4.08377038 10.738,3.62877038 10.341,3.35977038 L11.921,0.894770375 C12.004,0.764770375 12.022,0.604770375 11.972,0.458770375 C11.921,0.313770375 11.806,0.199770375 11.659,0.150770375 C11.591,0.127770375 10.057,-0.372229625 8.852,0.585770375 C8.754,0.551770375 8.645,0.496770375 8.525,0.436770375 C8.253,0.297770375 7.914,0.124770375 7.5,0.124770375 C7.087,0.124770375 6.754,0.295770375 6.485,0.433770375 C6.365,0.494770375 6.255,0.551770375 6.153,0.585770375 C4.98,-0.369229625 3.414,0.126770375 3.345,0.148770375 C3.197,0.197770375 3.08,0.311770375 3.028,0.457770375 C2.977,0.603770375 2.996,0.765770375 3.08,0.895770375 L4.666,3.35577038 C4.266,3.62477038 4,4.08077038 4,4.59877038 C4,5.07677038 4.23,5.49977038 4.582,5.77277038 C3.396,6.91677038 0.871,9.46477038 0.37,10.8817704 C0.125,11.5767704 0,12.3047704 0,13.0427704 C0,16.8797704 3.364,20.0007704 7.5,20.0007704 C11.636,20.0007704 15,16.8797704 15,13.0427704 C15,12.3047704 14.876,11.5777704 14.631,10.8857704 L14.631,10.8857704 Z M7.5,19.0007704 C3.916,19.0007704 1,16.3277704 1,13.0427704 C1,12.4177704 1.105,11.8027704 1.313,11.2137704 C1.751,9.97477038 4.5,7.21677038 5.697,6.09177038 L9.303,6.09177038 C10.501,7.21777038 13.25,9.97677038 13.687,11.2187704 C13.895,11.8047704 14,12.4177704 14,13.0427704 C14,16.3277704 11.084,19.0007704 7.5,19.0007704 L7.5,19.0007704 Z M5.645,1.47277038 C5.742,1.57177038 5.868,1.61277038 6.017,1.62077038 C6.385,1.60777038 6.681,1.45677038 6.941,1.32277038 C7.362,1.10777038 7.651,1.11277038 8.072,1.32677038 C8.332,1.45977038 8.627,1.60877038 8.983,1.62077038 C9.128,1.61977038 9.25,1.57377038 9.349,1.47977038 C9.757,1.08377038 10.256,0.993770375 10.667,0.997770375 L9.316,3.10477038 L5.693,3.10477038 L4.338,1.00177038 C4.768,1.00177038 5.26,1.08377038 5.645,1.47277038 L5.645,1.47277038 Z M7.6251,8.50077038 C7.9011,8.50077038 8.1251,8.72477038 8.1251,9.00077038 L8.1251,9.00077038 L8.1251,9.88177038 C8.4821,9.98177038 8.8221,10.1147704 9.1231,10.2517704 C9.3751,10.3657704 9.4851,10.6627704 9.3711,10.9137704 C9.2571,11.1657704 8.9621,11.2757704 8.7091,11.1617704 C8.3401,10.9937704 7.9581,10.8197704 7.5871,10.7667704 C7.3521,10.7317704 7.1361,10.7527704 6.9551,10.8227704 C6.8181,10.8757704 6.7001,11.0017704 6.6431,11.1507704 C6.6081,11.2457704 6.5831,11.3897704 6.6621,11.5397704 C6.7191,11.6487704 6.8621,11.7147704 6.9431,11.7437704 C7.1201,11.8087704 7.3261,11.8417704 7.5371,11.8777704 C8.1831,11.9907704 9.0691,12.1457704 9.4021,13.0607704 C9.5501,13.4657704 9.5281,13.8967704 9.3411,14.2737704 C9.1331,14.6917704 8.7421,15.0157704 8.2701,15.1597704 C8.2221,15.1747704 8.1741,15.1817704 8.1251,15.1917704 L8.1251,15.1917704 L8.1251,16.0007704 C8.1251,16.2767704 7.9011,16.5007704 7.6251,16.5007704 C7.3491,16.5007704 7.1251,16.2767704 7.1251,16.0007704 L7.1251,16.0007704 L7.1251,15.1947704 C6.8121,15.1357704 6.5381,15.0387704 6.3521,14.9567704 C6.1531,14.8687704 5.8621,14.7237704 5.6351,14.4807704 C5.4461,14.2777704 5.4571,13.9617704 5.6581,13.7737704 C5.8611,13.5847704 6.1771,13.5967704 6.3651,13.7967704 C6.4681,13.9067704 6.6391,13.9897704 6.7571,14.0427704 C7.2111,14.2427704 7.6541,14.3027704 7.9781,14.2037704 C8.1841,14.1407704 8.3591,13.9997704 8.4451,13.8287704 C8.5121,13.6947704 8.5171,13.5517704 8.4631,13.4017704 C8.3411,13.0677704 8.0191,12.9777704 7.3651,12.8627704 C7.1091,12.8177704 6.8441,12.7727704 6.6001,12.6837704 C6.2211,12.5447704 5.9351,12.3107704 5.7761,12.0037704 C5.5811,11.6337704 5.5561,11.2047704 5.7071,10.8007704 C5.8621,10.3867704 6.1931,10.0467704 6.5931,9.89177038 C6.7591,9.82577038 6.9381,9.78477038 7.1251,9.76577038 L7.1251,9.76577038 L7.1251,9.00077038 C7.1251,8.72477038 7.3491,8.50077038 7.6251,8.50077038 Z M9.507,4.10477038 C9.778,4.10477038 10,4.32677038 10,4.59877038 C10,4.86977038 9.778,5.09177038 9.507,5.09177038 L5.493,5.09177038 C5.222,5.09177038 5,4.86977038 5,4.59877038 C5,4.32677038 5.222,4.10477038 5.493,4.10477038 L9.507,4.10477038 Z" id="Fill-1"></path>
                </g>
            </g>
        </g>
    </g>
</svg>