<?xml version="1.0" encoding="UTF-8"?>
<svg width="128px" height="128px" viewBox="0 0 128 128" version="1.1" xmlns="http://www.w3.org/2000/svg" xmlns:xlink="http://www.w3.org/1999/xlink">
    <title>174BB251-BFD8-494A-804B-B10203F36EB0</title>
    <defs>
        <polygon id="path-1" points="0.000533333333 0.708666667 116.986667 0.708666667 116.986667 96 0.000533333333 96"></polygon>
    </defs>
    <g id="r8" stroke="none" stroke-width="1" fill="none" fill-rule="evenodd">
        <g id="PDP-commerce-default" transform="translate(-51.000000, -8405.000000)">
            <g id="8.-section/mobile/4.-footer/sellos" transform="translate(0.000000, 8261.000000)">
                <g id="3.-icons/seal/bloque3/cleanbeauty" transform="translate(51.000000, 144.000000)">
                    <g id="elements" transform="translate(5.333333, 4.000000)">
                        <path d="M58.2604,105.916667 L59.9644,105.87 C59.9964,105.868667 60.0257333,105.868667 60.0550667,105.868667 C60.8804,105.868667 61.3084,106.206 61.3284,106.872667 C61.3377333,107.203333 61.2524,107.463333 61.0790667,107.646 C60.8684,107.867333 60.5124,107.986 60.0230667,107.998 L58.3164,108.046 L58.2604,105.916667 Z M58.4084,111.363333 L58.3404,108.896667 L59.9444,108.852667 C59.9990667,108.851333 60.0510667,108.85 60.1017333,108.85 C61.2110667,108.85 61.6564,109.183333 61.6777333,110.011333 C61.7017333,110.896667 61.1964,111.288667 59.9884,111.322 L58.4084,111.363333 Z M62.2804,106.806 C62.2497333,105.692667 61.4084,104.959333 60.1764,104.959333 C60.1497333,104.959333 60.1217333,104.959333 60.0924,104.960667 L57.3457333,105.035333 L57.2924,105.036667 L57.4857333,112.239333 L57.4870667,112.292667 L60.1257333,112.222 C61.8017333,112.176667 62.6697333,111.403333 62.6324,109.986 C62.6110667,109.195333 62.1937333,108.559333 61.5404,108.303333 C62.0244,108.023333 62.2990667,107.471333 62.2804,106.806 L62.2804,106.806 Z" id="Fill-1" fill="#1C1F28"></path>
                        <polygon id="Fill-3" fill="#1C1F28" points="51.2617333 110.2096 49.1604 104.038933 49.1497333 104.0096 48.1444 103.8256 48.0924 103.814933 46.8017333 110.906933 46.7910667 110.958933 47.6670667 111.120267 47.7190667 111.1296 48.7457333 105.5016 50.8444 111.6696 50.8537333 111.698933 51.8724 111.884267 51.9244 111.894933 53.2150667 104.802933 53.2257333 104.750933 52.3377333 104.5896 52.2857333 104.578933"></polygon>
                        <polygon id="Fill-5" fill="#1C1F28" points="38.9596 104.7864 39.0062667 104.8104 39.3916 104.039733 36.5662667 102.615733 37.5476 100.6664 40.5849333 102.199733 40.6316 102.2224 41.0382667 101.415733 37.1596 99.4597333 37.1129333 99.4357333 33.8676 105.867733 33.8436 105.9144 37.7236 107.871733 37.7702667 107.895733 38.1782667 107.087733 35.0929333 105.533067 36.1756 103.383733"></polygon>
                        <polygon id="Fill-7" fill="#1C1F28" points="20.7656 12.0937333 21.4362667 11.5924 21.5722667 9.87373333 20.6762667 10.5444 20.6536 10.5630667 20.7576 11.9964"></polygon>
                        <path d="M41.6133333,106.9596 L43.9973333,103.9316 L44.024,107.786267 L41.6133333,106.9596 Z M44.9626667,110.522267 L44.8533333,102.846267 L44.8533333,102.810267 L44.008,102.522267 L39.2306667,108.482267 L39.184,108.542267 L40.076,108.8476 L40.1106667,108.8596 L41.0533333,107.658267 L44.0266667,108.676933 L44.0333333,110.166267 L44.0333333,110.204933 L44.9626667,110.522267 Z" id="Fill-9" fill="#1C1F28"></path>
                        <path d="M44.5494667,82.9909333 L54.6214667,66.0376 L54.6294667,66.0242667 L54.6294667,55.9842667 L61.8108,55.9842667 L61.8108,66.0242667 L64.7868,71.0402667 L60.3854667,71.0402667 L60.3854667,72.1709333 L65.4588,72.1709333 L67.5694667,75.7229333 L63.1614667,75.7229333 L63.1614667,76.8509333 L68.2414667,76.8509333 L71.8748,82.9669333 L71.9121333,83.0309333 C72.0948,83.3042667 72.1908,83.6229333 72.1908,83.9496 C72.1908,84.8456 71.4881333,85.5736 70.5934667,85.6069333 L70.4641333,85.6042667 L45.9814667,85.6069333 L45.8641333,85.6042667 L45.8481333,85.6069333 C44.9508,85.5736 44.2468,84.8456 44.2468,83.9496 C44.2468,83.6122667 44.3494667,83.2909333 44.5494667,82.9909333 M73.3201333,83.9496 C73.3201333,83.4042667 73.1601333,82.8722667 72.8574667,82.4122667 L62.9388,65.7176 L62.9388,55.9842667 L65.4134667,55.9842667 L65.4134667,54.8536 L51.0228,54.8536 L51.0228,55.9842667 L53.5014667,55.9842667 L53.5014667,65.7176 L43.5988,82.3869333 C43.2841333,82.8469333 43.1174667,83.3869333 43.1174667,83.9496 C43.1174667,85.4522667 44.2921333,86.6762667 45.7934667,86.7362667 L46.0028,86.7362667 L70.6361333,86.7362667 C72.1414667,86.6762667 73.3201333,85.4522667 73.3201333,83.9496" id="Fill-11" fill="#1C1F28"></path>
                        <path d="M94.3893333,91.0677333 L95.22,91.7517333 L95.2613333,91.7850667 L95.296,91.7437333 C102.278667,83.2544 106.125333,72.5170667 106.125333,61.5090667 C106.125333,35.2477333 84.756,13.8824 58.492,13.8824 C32.228,13.8824 10.8613333,35.2477333 10.8613333,61.5090667 C10.8613333,72.5130667 14.7066667,83.2517333 21.692,91.7437333 L21.7253333,91.7850667 L22.556,91.1010667 L22.5973333,91.0677333 L22.564,91.0264 C15.7466667,82.7384 11.992,72.2557333 11.992,61.5090667 C11.992,35.8704 32.852,15.0117333 58.492,15.0117333 C84.136,15.0117333 104.997333,35.8704 104.997333,61.5090667 C104.997333,72.2544 101.242667,82.7357333 94.4226667,91.0264 L94.3893333,91.0677333 Z" id="Fill-13" fill="#1C1F28"></path>
                        <path d="M99.8242667,17.7590667 L98.2522667,21.2857333 L96.3976,19.5350667 L99.8242667,17.7590667 Z M93.5296,19.9710667 L94.2429333,20.6470667 L95.6002667,19.9404 L97.8882667,22.1004 L97.2642667,23.4924 L97.9789333,24.1684 L101.0536,17.1244 L101.068267,17.0910667 L100.414933,16.4764 L93.5962667,19.9364 L93.5296,19.9710667 Z" id="Fill-15" fill="#1C1F28"></path>
                        <polygon id="Fill-17" fill="#1C1F28" points="68.1406667 104.894533 68.002 104.051867 67.994 103.999867 63.6993333 104.714533 63.6473333 104.722533 64.8286667 111.8412 64.8353333 111.8932 69.13 111.1812 69.182 111.1732 69.046 110.330533 69.038 110.278533 65.6246667 110.846533 65.2273333 108.4692 68.3046667 107.955867 68.3566667 107.947867 68.2233333 107.147867 68.2153333 107.095867 65.0886667 107.614533 64.7273333 105.459867 68.0886667 104.902533"></polygon>
                        <g id="Group-21" transform="translate(0.000000, 24.000000)">
                            <mask id="mask-2" fill="white">
                                <use xlink:href="#path-1"></use>
                            </mask>
                            <g id="Clip-20"></g>
                            <path d="M103.977867,0.75 L103.944533,0.708666667 L103.068533,1.42066667 L103.1032,1.462 C111.328533,11.6286667 115.857867,24.4313333 115.857867,37.5086667 C115.857867,69.1366667 90.1232,94.8686667 58.4925333,94.8686667 C26.8632,94.8686667 1.12986667,69.1366667 1.12986667,37.5086667 C1.12986667,24.426 5.66053333,11.6233333 13.8872,1.462 L13.9205333,1.42066667 L13.0432,0.708666667 L13.0085333,0.75 C4.6192,11.114 0.000533333333,24.1686667 0.000533333333,37.5086667 C0.000533333333,69.7606667 26.2392,96.0006667 58.4925333,96.0006667 C90.7458667,96.0006667 116.9872,69.7606667 116.9872,37.5086667 C116.9872,24.1686667 112.3672,11.114 103.977867,0.75" id="Fill-19" fill="#1C1F28" mask="url(#mask-2)"></path>
                        </g>
                        <path d="M21.2968892,14.4128 C21.2929333,13.7901333 21.5609333,13.2594667 22.0742667,12.8768 C22.4262667,12.6128 22.8049333,12.4808 23.2049333,12.4808 C23.2929333,12.4808 23.3822667,12.4874667 23.4742667,12.4994667 C24.1769333,12.6021333 24.8742667,13.0928 25.4889333,13.9181333 C26.1062667,14.7421333 26.3809333,15.5514667 26.2782667,16.2554667 C26.2076,16.7528 25.9529333,17.1661333 25.5222667,17.4874667 C25.0102667,17.8714667 24.4249333,17.9768 23.8276,17.7981333 C23.2249333,17.6154667 22.6302667,17.1488 22.1049333,16.4448 C21.5809333,15.7448 21.3009333,15.0421333 21.2968892,14.4128 M24.3662667,18.7941333 C24.9569333,18.7941333 25.5382667,18.6048 26.0636,18.2128 L26.0649333,18.2128 C27.5329333,17.1141333 27.6089333,15.1581333 26.2569333,13.3434667 C24.8982667,11.5314667 23.0009333,11.0528 21.5316,12.1514667 C20.0622667,13.2514667 19.9862667,15.2074667 21.3396,17.0181333 C22.2102667,18.1808 23.3049333,18.7941333 24.3662667,18.7941333" id="Fill-22" fill="#1C1F28"></path>
                        <polygon id="Fill-24" fill="#1C1F28" points="19.6185333 23.6158667 20.3038667 22.9625333 18.1998667 20.7545333 20.4638667 18.5985333 20.5025333 18.5612 19.9452 17.9745333 19.9078667 17.9345333 17.6025333 20.1292 15.9132 18.3572 18.3838667 16.0012 18.4238667 15.9638667 17.8385333 15.3478667 17.8012 15.3092 14.6438667 18.3158667 14.6038667 18.3545333 19.5812 23.5772"></polygon>
                        <path d="M27.3164,9.50386667 L28.7457333,8.68786667 C29.6404,8.17853333 30.3044,8.29053333 30.7217333,9.01986667 C31.1444,9.75986667 30.9044,10.3945333 30.0110667,10.9065333 L28.5804,11.7198667 L27.3164,9.50386667 Z M29.6470667,15.4985333 L30.4204,15.0585333 L30.4670667,15.0318667 L29.0297333,12.5052 L30.1990667,11.8398667 L32.9257333,13.5945333 L32.9537333,13.6132 L33.9217333,13.0625333 L31.0644,11.2625333 C31.9257333,10.5332 32.1097333,9.52386667 31.5537333,8.54653333 C31.2244,7.97053333 30.7550667,7.6012 30.1977333,7.48253333 C29.6404,7.3612 29.0044,7.49586667 28.3604,7.8652 L26.0924,9.15853333 L26.0457333,9.18653333 L29.6204,15.4518667 L29.6470667,15.4985333 Z" id="Fill-26" fill="#1C1F28"></path>
                        <path d="M94.7877333,12.9544 C95.2024,13.2597333 95.4544,13.5810667 95.5357333,13.9064 C95.6144,14.2277333 95.5304,14.5597333 95.2824,14.8957333 C95.0570667,15.2024 94.7917333,15.3797333 94.4944,15.4264 C94.1290667,15.4810667 93.7197333,15.3397333 93.2690667,15.0064 L91.9477333,14.0304 L93.4677333,11.9784 L94.7877333,12.9544 Z M88.9237333,16.5304 L89.6837333,17.0917333 L91.4104,14.7570667 L92.4904,15.5557333 L91.9877333,18.7610667 L91.9824,18.7930667 L92.8797333,19.4557333 L93.3677333,16.1144 C94.3984,16.6184 95.3730667,16.3810667 96.0530667,15.4650667 C96.8597333,14.3690667 96.6077333,13.1744 95.3810667,12.2704 L93.2877333,10.7210667 L93.2450667,10.6904 L88.9544,16.4864 L88.9237333,16.5304 Z" id="Fill-28" fill="#1C1F28"></path>
                        <path d="M79.0768,11.4622667 C79.4674667,11.6209333 79.8501333,11.6982667 80.2168,11.6982667 C81.3261333,11.6982667 82.2821333,10.9942667 82.8021333,9.7196 L83.0968,8.99826667 L80.5954667,7.97693333 L80.5461333,7.95693333 L80.2248,8.7476 L80.2061333,8.79693333 L81.8901333,9.48093333 C81.6594667,10.0636 81.3008,10.4742667 80.8554667,10.6676 C80.4354667,10.8516 79.9394667,10.8356 79.4181333,10.6222667 C78.8261333,10.3809333 78.4314667,9.93426667 78.2768,9.33026667 C78.1221333,8.7196 78.2154667,7.96893333 78.5461333,7.15693333 C78.9341333,6.20226667 79.4861333,5.55026667 80.1408,5.27426667 C80.6061333,5.0796 81.0928,5.08226667 81.5941333,5.28626667 C82.5181333,5.66226667 82.8848,6.43693333 82.6541333,7.52626667 L82.6421333,7.5796 L83.5808,7.77293333 L83.5941333,7.7236 C83.9421333,6.2876 83.2901333,5.00093333 81.9314667,4.44626667 C81.0848,4.10093333 80.2328,4.1436 79.4714667,4.56093333 C78.7128,4.98093333 78.0874667,5.75293333 77.6621333,6.7956 C76.7928,8.92493333 77.3474667,10.7569333 79.0768,11.4622667" id="Fill-30" fill="#1C1F28"></path>
                        <polygon id="Fill-32" fill="#1C1F28" points="75.3464 9.86333333 75.5864 8.99266667 72.2544 8.07 72.8957333 5.746 75.9544 6.59133333 76.1837333 5.76066667 73.1250667 4.91533333 73.7104 2.80866667 77.0410667 3.73 77.2810667 2.85933333 73.0904 1.69933333 73.0384 1.68466667 71.1144 8.63666667 71.0997333 8.68866667 75.2944 9.84866667"></polygon>
                        <path d="M85.1302667,14.4101333 C85.6542667,14.7061333 86.1569333,14.8528 86.6222667,14.8528 C87.4462667,14.8528 88.1569333,14.3928 88.6636,13.4968 L91.0382667,9.30346667 L91.0636,9.25813333 L90.2329333,8.7848 L87.8529333,12.9914667 C87.3129333,13.9421333 86.5249333,14.1621333 85.5729333,13.6208 C85.1036,13.3568 84.8142667,13.0328 84.7102667,12.6594667 C84.6022667,12.2728 84.6902667,11.8288 84.9702667,11.3354667 L87.3129333,7.1968 L87.3382667,7.15146667 L86.5182667,6.68346667 L84.1169333,10.9248 C83.7182667,11.6274667 83.6036,12.2888 83.7769333,12.8874667 C83.9502667,13.4888 84.4062667,13.9994667 85.1302667,14.4101333" id="Fill-34" fill="#1C1F28"></path>
                        <polygon id="Fill-36" fill="#1C1F28" points="50.194 7.85813333 54.2806667 7.37146667 54.334 7.3648 54.226 6.46613333 51.0233333 6.8488 50.278 0.602133333 50.2726667 0.550133333 49.3353333 0.659466667 50.1873333 7.8048"></polygon>
                        <path d="M67.2917333,8.12106667 C67.4957333,8.15306667 67.6957333,8.1704 67.8877333,8.1704 C68.4757333,8.1704 68.9957333,8.02106667 69.3917333,7.73306667 C69.7917333,7.4424 70.0424,7.0264 70.1210667,6.52906667 C70.3037333,5.40106667 69.7170667,4.64906667 67.9597333,3.75573333 C66.7490667,3.15573333 66.4050667,2.81706667 66.4877333,2.3024 C66.5290667,2.0464 66.6557333,1.8344 66.8570667,1.68906667 C67.1370667,1.48506667 67.5517333,1.41573333 68.0224,1.4904 C68.9197333,1.63306667 69.4317333,2.2104 69.5050667,3.16373333 L69.5090667,3.21573333 L70.4557333,3.1664 L70.4544,3.1144 C70.4237333,1.8024 69.5264,0.8144 68.1704,0.5984 C67.9957333,0.5704 67.8237333,0.557066667 67.6597333,0.557066667 C66.5477333,0.557066667 65.7104,1.16906667 65.5544,2.15306667 C65.4024,3.12506667 65.8984,3.73306667 67.5197333,4.56373333 C68.8757333,5.23973333 69.2970667,5.7024 69.1890667,6.39306667 C69.0837333,7.0424 68.3877333,7.3784 67.4424,7.2304 C66.1944,7.0344 65.6384,6.35973333 65.6904,5.10906667 L65.6930667,5.05306667 L64.7890667,5.0624 L64.7397333,5.0624 L64.7357333,5.11173333 C64.6290667,6.7744 65.5370667,7.84373333 67.2917333,8.12106667" id="Fill-38" fill="#1C1F28"></path>
                        <path d="M56.9284,4.99733333 L58.1457333,1.34933333 L59.4737333,4.96 L56.9284,4.99733333 Z M56.1604,7.29466667 L56.6377333,5.84666667 L59.7804,5.79866667 L60.2897333,7.192 L60.3004,7.228 L61.2844,7.21466667 L58.5844,0.0346666667 L58.5710667,0 L57.7164,0.0133333333 L57.6790667,0.0146666667 L55.2044,7.23733333 L55.1790667,7.308 L56.1230667,7.29466667 L56.1604,7.29466667 Z" id="Fill-40" fill="#1C1F28"></path>
                        <path d="M45.0794667,8.9792 C45.3461333,8.9792 45.6341333,8.9432 45.9408,8.86986667 L45.9394667,8.86986667 C46.7701333,8.67253333 47.3608,8.29386667 47.6968,7.7472 C48.0194667,7.22186667 48.0901333,6.5632 47.9048,5.79253333 L46.7834667,1.10053333 L46.7714667,1.04986667 L45.8941333,1.25786667 L45.8421333,1.2712 L46.9674667,5.9752 C47.0968,6.5072 47.0541333,6.94853333 46.8461333,7.2872 C46.6381333,7.6272 46.2634667,7.86453333 45.7288,7.9912 C45.2008,8.11786667 44.7621333,8.07786667 44.4274667,7.8672 C44.0928,7.65653333 43.8568,7.27386667 43.7248,6.72853333 L42.6194667,2.09653333 L42.6074667,2.04586667 L41.7394667,2.25253333 L41.6888,2.26586667 L42.8221333,7.00853333 C43.1314667,8.2992 43.9208,8.9792 45.0794667,8.9792" id="Fill-42" fill="#1C1F28"></path>
                        <path d="M70.6354667,39.2956 L69.8354667,38.4969333 L58.3154667,50.0142667 C58.1381333,45.4462667 59.8074667,41.1636 63.0234667,37.9449333 C66.4221333,34.5502667 71.1074667,32.8422667 75.8701333,33.2662667 C76.2781333,38.0409333 74.5728,42.7182667 71.1861333,46.1049333 C68.1248,49.1649333 64.0981333,50.8249333 59.7754667,50.8249333 C59.5568,50.8249333 59.3381333,50.8222667 59.1181333,50.8129333 L70.6354667,39.2956 Z M57.1288,50.7862667 C56.8754667,50.8049333 56.6208,50.8142667 56.3688,50.8142667 C53.5661333,50.8142667 50.8714667,49.7049333 48.8741333,47.7076 C46.6968,45.5289333 45.5768,42.5222667 45.7941333,39.4516 C46.0488,39.4342667 46.3008,39.4249333 46.5528,39.4249333 C49.3541333,39.4249333 52.0514667,40.5342667 54.0514667,42.5316 C56.2248,44.7089333 57.3448,47.7142667 57.1288,50.7862667 L57.1288,50.7862667 Z M57.7128,51.8649333 L57.7354667,51.8596 L57.7634667,51.8649333 C58.4101333,51.9382667 59.0808,51.9769333 59.7568,51.9769333 C64.3701333,51.9769333 68.7141333,50.1742667 71.9848,46.9036 C75.7368,43.1542667 77.5448,37.9716 76.9421333,32.6876 L76.8941333,32.2382667 L76.4488,32.1876 C75.7794667,32.1116 75.1128,32.0742667 74.4501333,32.0742667 C69.8754667,32.0742667 65.5034667,33.8689333 62.2248,37.1476 C59.8328,39.5409333 58.2128,42.5596 57.5288,45.8876 C56.9408,44.3236 56.0408,42.9276 54.8488,41.7329333 C52.3008,39.1889333 48.7954667,37.9609333 45.2128,38.3742667 L44.7674667,38.4249333 L44.7168,38.8702667 C44.3088,42.4449333 45.5341333,45.9569333 48.0754667,48.5049333 C50.2941333,50.7209333 53.2354667,51.9409333 56.3594667,51.9409333 C56.8021333,51.9409333 57.2581333,51.9156 57.7128,51.8649333 L57.7128,51.8649333 Z" id="Fill-44" fill="#1C1F28"></path>
                        <polygon id="Fill-46" fill="#1C1F28" points="86.2486667 103.9284 86.278 103.9724 87.0713333 103.4404 83.534 98.1550667 85.338 96.9444 85.3833333 96.9137333 84.8793333 96.1644 80.4286667 99.1457333 80.3846667 99.1764 80.8873333 99.9284 82.738 98.6870667"></polygon>
                        <path d="M79.0598667,107.798133 C79.4772,107.798133 79.9318667,107.683467 80.4185333,107.4528 C81.9492,106.723467 82.4052,105.507467 81.7012,104.027467 L79.6225333,99.6674667 L79.5985333,99.6194667 L78.7825333,100.007467 L78.7345333,100.031467 L80.8185333,104.4008 C81.2905333,105.390133 81.0172,106.163467 80.0292,106.6368 C79.5345333,106.8728 79.0958667,106.9208 78.7278667,106.786133 C78.3572,106.650133 78.0452,106.323467 77.8038667,105.8168 L75.7532,101.511467 L75.7292,101.463467 L74.8732,101.874133 L76.9772,106.278133 C77.4545333,107.282133 78.1732,107.798133 79.0598667,107.798133" id="Fill-48" fill="#1C1F28"></path>
                        <path d="M74.1966667,107.386667 L71.7673333,108.144 L71.9006667,104.3 L74.1966667,107.386667 Z M71.6793333,110.56 L71.7273333,109.037333 L74.7246667,108.104 L75.6113333,109.298667 L75.6326667,109.329333 L76.4966667,109.057333 L76.5686667,109.034667 L71.9486667,102.917333 L71.926,102.888 L71.1126667,103.141333 L71.0766667,103.152 L70.746,110.776 L70.7433333,110.852 L71.6433333,110.572 L71.6793333,110.56 Z" id="Fill-50" fill="#1C1F28"></path>
                        <polygon id="Fill-52" fill="#1C1F28" points="91.9374667 99.5964 91.9721333 99.6364 92.6414667 99.0324 92.6828 98.9977333 90.6614667 96.7497333 89.7441333 91.9924 89.7268 91.9004 88.9294667 92.6204 88.9068 92.6390667 89.6841333 96.3790667 86.0841333 95.2057333 86.0548 95.1964 85.3014667 95.8697333 85.2321333 95.9337333 89.9521333 97.3884"></polygon>
                        <path d="M29.3893333,97.2838667 L30.1986667,97.7892 L30.228,97.7465333 C31.0973333,96.4558667 30.94,94.9838667 29.8253333,93.9958667 C28.4573333,92.7785333 26.5253333,93.0945333 25.0213333,94.7878667 C23.4973333,96.5065333 23.412,98.4158667 24.804,99.6518667 C25.3693333,100.1532 26.004,100.402533 26.6426667,100.402533 C27.3586667,100.402533 28.0813333,100.090533 28.7226667,99.4718667 L28.7586667,99.4358667 L28.116,98.6985333 L28.076,98.7358667 C27.1306667,99.6025333 26.2066667,99.6838667 25.404,98.9772 C24.4173333,98.0972 24.54,96.7665333 25.736,95.4198667 C26.916,94.0918667 28.2506667,93.8065333 29.2253333,94.6718667 C29.98,95.3385333 30.0466667,96.2265333 29.4173333,97.2385333 L29.3893333,97.2838667 Z" id="Fill-54" fill="#1C1F28"></path>
                        <polygon id="Fill-56" fill="#1C1F28" points="35.1926667 12.3776 36.074 12.0269333 33.9873333 6.78026667 38.23 11.1362667 38.2553333 11.1616 38.654 11.0029333 38.7473333 4.8856 40.814 10.0856 40.8326667 10.1349333 41.7206667 9.78293333 39.0553333 3.07626667 39.0366667 3.02693333 37.942 3.4616 37.9073333 3.47493333 37.8526667 9.55493333 33.6633333 5.20026667 33.6366667 5.17493333 32.5073333 5.62293333 35.1726667 12.3282667"></polygon>
                        <polygon id="Fill-58" fill="#1C1F28" points="33.4961333 97.1224 32.7134667 96.5930667 28.7001333 102.557067 28.6708 102.601067 32.0814667 104.897067 32.1268 104.927733 32.6281333 104.179733 29.9561333 102.381067 33.4668 97.1664"></polygon>
                    </g>
                </g>
            </g>
        </g>
    </g>
</svg>