<?xml version="1.0" encoding="UTF-8"?>
<svg width="128px" height="128px" viewBox="0 0 128 128" version="1.1" xmlns="http://www.w3.org/2000/svg" xmlns:xlink="http://www.w3.org/1999/xlink">
    <title>BE5799F9-7985-4B02-967C-2AAD1E696442</title>
    <defs>
        <polygon id="path-1" points="0.246133333 -0.00133333333 7.7488 -0.00133333333 7.7488 7.72906667 0.246133333 7.72906667"></polygon>
        <polygon id="path-3" points="0.276666667 1.1068 117.043333 1.1068 117.043333 57.3333333 0.276666667 57.3333333"></polygon>
    </defs>
    <g id="r8" stroke="none" stroke-width="1" fill="none" fill-rule="evenodd">
        <g id="PDP-commerce-default" transform="translate(-51.000000, -8549.000000)">
            <g id="8.-section/mobile/4.-footer/sellos" transform="translate(0.000000, 8261.000000)">
                <g id="3.-icons/seal/bloque3/skintested" transform="translate(51.000000, 288.000000)">
                    <g id="elements" transform="translate(2.666667, 4.000000)">
                        <path d="M105.192667,19.7786667 L106.300667,20.996 C106.648667,21.376 106.832667,21.74 106.85,22.0746667 C106.867333,22.4053333 106.720667,22.7146667 106.412667,22.9946667 C105.780667,23.5746667 105.108667,23.4746667 104.415333,22.7133333 L103.306,21.5013333 L105.192667,19.7786667 Z M99.8553333,23.3666667 L100.494,24.0666667 L102.638,22.112 L103.546,23.104 L102.431333,26.1493333 L102.419333,26.18 L103.172667,27.0013333 L104.296667,23.8186667 C105.212667,24.5106667 106.214,24.4693333 107.056667,23.7 C108.059333,22.7853333 108.044667,21.5653333 107.016667,20.4373333 L105.258,18.5106667 L105.222,18.472 L99.894,23.332 L99.8553333,23.3666667 Z" id="Fill-1" fill="#1C1F28"></path>
                        <path d="M6.0964,39.862 C6.45773333,39.99 6.7044,40.1926667 6.8324,40.4646667 C6.9884,40.794 6.97106667,41.226 6.78306667,41.75 L6.23506667,43.298 L3.83506667,42.4433333 L4.3844,40.8953333 C4.72973333,39.9273333 5.3044,39.5753333 6.0964,39.862 L6.0964,39.862 Z M9.5004,45.462 L9.79906667,44.6246667 L9.8164,44.574 L7.08573333,43.602 L7.5364,42.3366667 L10.7430667,41.89 L10.7750667,41.886 L11.1484,40.8393333 L7.8124,41.338 C7.9924,40.2233333 7.47373333,39.338 6.41506667,38.9606667 C5.12973333,38.502 4.0684,39.0913333 3.55773333,40.5246667 L2.68173333,42.978 L2.66573333,43.0286667 L9.44973333,45.4446667 L9.5004,45.462 Z" id="Fill-3" fill="#1C1F28"></path>
                        <polygon id="Fill-5" fill="#1C1F28" points="8.0976 51.0598667 9.0936 46.8358667 9.1056 46.7838667 8.22693333 46.5798667 7.43493333 49.9345333 5.09626667 49.3852 5.80826667 46.3558667 5.82026667 46.3038667 4.9816 46.1092 4.2576 49.1878667 2.1376 48.6892 2.91493333 45.3838667 2.92693333 45.3332 2.05093333 45.1252 1.05493333 49.3492 1.04293333 49.3998667 8.04693333 51.0478667"></polygon>
                        <path d="M109.416667,25.8190667 C110.051333,25.8190667 110.595333,26.0910667 110.979333,26.6350667 C111.346,27.1550667 111.438,27.7417333 111.240667,28.3324 C111.043333,28.9270667 110.559333,29.5097333 109.844667,30.0137333 C109.007333,30.6057333 108.195333,30.8510667 107.496667,30.7364 C107.000667,30.6510667 106.592667,30.3857333 106.282,29.9470667 C105.534,28.8857333 105.968667,27.5897333 107.416667,26.5657333 C108.123333,26.0684 108.811333,25.8190667 109.416667,25.8190667 M105.546,30.4684 C106.115333,31.2764 106.946,31.6844 107.883333,31.6844 C108.678,31.6844 109.55,31.3897333 110.398,30.7910667 C111.303333,30.1537333 111.907333,29.3724 112.146,28.5324 C112.386,27.6870667 112.236667,26.8510667 111.716667,26.1137333 C110.660667,24.6177333 108.712667,24.4870667 106.864667,25.7884 C105.020667,27.0910667 104.49,28.9710667 105.546,30.4684" id="Fill-7" fill="#1C1F28"></path>
                        <polygon id="Fill-9" fill="#1C1F28" points="75.9218667 9.27866667 76.8192 9.576 78.6072 4.144 79.8378667 10.5413333 79.8418667 10.572 80.8725333 10.9106667 83.1245333 4.07466667 83.1418667 4.024 82.2365333 3.724 80.4498667 9.15333333 79.2192 2.75733333 79.2138667 2.728 78.1912 2.392 75.9392 9.228"></polygon>
                        <g id="Group-13" transform="translate(61.333333, 0.001333)">
                            <mask id="mask-2" fill="white">
                                <use xlink:href="#path-1"></use>
                            </mask>
                            <g id="Clip-12"></g>
                            <polygon id="Fill-11" fill="#1C1F28" mask="url(#mask-2)" points="1.57546667 1.6784 3.51546667 7.4384 3.52746667 7.47306667 3.95546667 7.50373333 6.6848 2.03306667 6.3008 7.60906667 6.2968 7.6624 7.25146667 7.72906667 7.7448 0.533066667 7.7488 0.479733333 6.53546667 0.395733333 3.8608 5.85173333 1.96613333 0.115733333 1.95413333 0.0824 0.743466667 -0.0016 0.250133333 7.19306667 0.246133333 7.2464 1.1888 7.31306667"></polygon>
                        </g>
                        <path d="M101.299467,16.0768 C102.0928,16.7648 102.179467,17.4101333 101.5728,18.1088 C100.9728,18.7981333 100.326133,18.7954667 99.5328,18.1088 L98.1634667,16.9194667 L99.9288,14.8834667 L101.299467,16.0768 Z M95.0501333,19.0621333 L95.7634667,19.6821333 L97.5701333,17.5994667 L98.9794667,18.8261333 C100.134133,19.8248 101.3728,19.7941333 102.294133,18.7354667 C102.726133,18.2394667 102.934133,17.6848 102.894133,17.1328 C102.8528,16.5301333 102.518133,15.9394667 101.9288,15.4274667 L99.8088,13.5848 L95.0848,19.0221333 L95.0501333,19.0621333 Z" id="Fill-14" fill="#1C1F28"></path>
                        <path d="M13.8802667,58.7552 L13.8776,58.8072 L14.9496,58.8725333 L15.0016,58.8752 L15.0056,58.8218667 C16.4416,34.3072 36.7869333,15.1045333 61.3242667,15.1045333 C85.8642667,15.1045333 106.210933,34.3072 107.6456,58.8218667 L107.6496,58.8752 L108.722933,58.8112 L108.776267,58.8072 L108.7736,58.7552 C107.304267,33.6458667 86.4629333,13.9765333 61.3242667,13.9765333 C36.1882667,13.9765333 15.3496,33.6458667 13.8802667,58.7552" id="Fill-16" fill="#1C1F28"></path>
                        <polygon id="Fill-18" fill="#1C1F28" points="74.6458667 8.9532 74.8272 8.06786667 71.4432 7.37053333 71.9325333 5.0132 74.9805333 5.64386667 75.0325333 5.6532 75.2072 4.8092 72.1045333 4.16786667 72.5445333 2.03186667 75.8765333 2.71853333 75.9285333 2.7292 76.1112 1.84386667 71.8552 0.967866667 71.8032 0.9572 70.3472 8.01186667 70.3378667 8.06386667 74.5938667 8.94253333"></polygon>
                        <polygon id="Fill-20" fill="#1C1F28" points="87.6002667 6.9896 89.6109333 7.9416 89.9722667 7.17226667 89.9962667 7.12426667 85.1562667 4.83893333 85.1082667 4.81493333 84.7229333 5.63093333 86.7362667 6.58293333 84.0469333 12.2736 84.0229333 12.3216 84.8869333 12.7322667"></polygon>
                        <polygon id="Fill-22" fill="#1C1F28" points="87.9752 14.3046667 91.6685333 16.574 91.7125333 16.602 92.1832 15.8353333 89.2485333 14.0313333 90.5072 11.9846667 93.1978667 13.6393333 93.6498667 12.906 90.9565333 11.2526667 92.0978667 9.39666667 94.9885333 11.174 95.0338667 11.202 95.5032 10.4313333 91.8098667 8.16466667 91.7658667 8.13666667 88.0032 14.2606667"></polygon>
                        <polygon id="Fill-24" fill="#1C1F28" points="99.7513333 94.694 102.447333 91.298 102.482 91.2566667 101.816667 90.7286667 101.775333 90.6953333 99.6313333 93.3913333 97.75 91.8966667 99.6846667 89.466 99.7193333 89.4233333 99.086 88.922 99.0446667 88.8886667 97.0766667 91.3606667 95.3726667 90.0046667 97.4846667 87.3513333 97.518 87.3086667 96.8113333 86.746 94.1113333 90.1433333 94.0766667 90.1846667 99.71 94.6606667"></polygon>
                        <path d="M114.200533,31.9688 L115.000533,33.4768 C115.232533,33.9154667 115.304533,34.2888 115.212533,34.5874667 C115.141867,34.8168 114.9712,35.0034667 114.705867,35.1448 C114.412533,35.2994667 114.141867,35.3394667 113.904533,35.2688 C113.612533,35.1781333 113.345867,34.9114667 113.116533,34.4754667 L112.316533,32.9688 L114.200533,31.9688 Z M111.561867,33.3701333 L112.312533,34.7848 C112.888533,35.8701333 112.813867,36.4501333 112.049867,36.8568 C111.653867,37.0648 111.312533,37.0981333 111.009867,36.9541333 C110.700533,36.8061333 110.408533,36.4701333 110.1192,35.9248 L109.3792,34.5248 L111.561867,33.3701333 Z M108.137867,34.1154667 L109.3752,36.4461333 C109.764533,37.1808 110.228533,37.6621333 110.7592,37.8754667 C110.9672,37.9594667 111.184533,38.0008 111.408533,38.0008 C111.7552,38.0008 112.117867,37.9021333 112.4952,37.7021333 C113.1952,37.3301333 113.580533,36.6728 113.517867,35.9728 C113.984533,36.2794667 114.5992,36.2834667 115.189867,35.9714667 C116.196533,35.4368 116.469867,34.3181333 115.869867,33.1888 L114.5592,30.7128 L108.184533,34.0914667 L108.137867,34.1154667 Z" id="Fill-26" fill="#1C1F28"></path>
                        <path d="M64.6874667,105.6328 C64.7461333,105.6288 64.8021333,105.626133 64.8581333,105.626133 C65.7674667,105.626133 66.3861333,106.195467 66.6554667,107.282133 L66.6674667,107.334133 L67.5421333,107.119467 L67.5914667,107.106133 L67.5808,107.0568 C67.2794667,105.618133 66.2234667,104.723467 64.8581333,104.723467 C64.7794667,104.723467 64.7008,104.727467 64.6208,104.7328 C62.7968,104.866133 61.6808,106.466133 61.8421333,108.7168 C61.9248,109.835467 62.2794667,110.7608 62.8714667,111.391467 C63.4101333,111.967467 64.1154667,112.267467 64.9234667,112.267467 C65.0034667,112.267467 65.0861333,112.263467 65.1688,112.258133 C66.7608,112.142133 67.7568,111.022133 67.7688,109.3328 L67.7688,109.282133 L66.7901333,109.2288 L66.7888,109.283467 C66.7528,110.563467 66.1688,111.2808 65.1034667,111.358133 C64.5568,111.398133 64.0954667,111.2528 63.7168,110.926133 C63.1874667,110.467467 62.8688,109.679467 62.7941333,108.6488 C62.7181333,107.623467 62.9234667,106.799467 63.3874667,106.262133 C63.7154667,105.882133 64.1541333,105.670133 64.6874667,105.6328" id="Fill-28" fill="#1C1F28"></path>
                        <path d="M105.088533,87.4701333 C105.520533,86.7501333 105.6712,86.0061333 105.512533,85.3754667 C105.393867,84.8954667 105.1032,84.5074667 104.672533,84.2501333 C103.689867,83.6594667 102.772533,83.9234667 101.288533,85.2181333 C100.2792,86.1154667 99.8352,86.3048 99.3925333,86.0394667 C98.8498667,85.7141333 98.7805333,85.0368 99.2138667,84.3154667 C99.6832,83.5368 100.4072,83.2754667 101.3192,83.5621333 L101.368533,83.5781333 L101.680533,82.6821333 L101.6312,82.6648 C100.400533,82.2021333 99.1485333,82.6648 98.4445333,83.8394667 C98.0965333,84.4194667 97.9565333,85.0141333 98.0405333,85.5621333 C98.1218667,86.1074667 98.4312,86.5621333 98.9058667,86.8474667 C99.7418667,87.3528 100.492533,87.1194667 101.8752,85.9314667 C103.024533,84.9114667 103.5872,84.7008 104.193867,85.0634667 C104.4712,85.2288 104.6312,85.4981333 104.656533,85.8394667 C104.680533,86.1888 104.564533,86.5888 104.321867,86.9968 C103.668533,88.0808 102.8352,88.3421333 101.696533,87.8288 L101.645867,87.8048 L101.316533,88.6474667 L101.297867,88.6928 L101.341867,88.7154667 C101.813867,88.9408 102.2672,89.0528 102.696533,89.0528 C103.636533,89.0528 104.460533,88.5154667 105.088533,87.4701333" id="Fill-30" fill="#1C1F28"></path>
                        <path d="M113.595067,40.0742667 L117.449733,39.9596 L114.507067,42.4516 L113.595067,40.0742667 Z M110.823067,39.2222667 L111.161733,40.1062667 L111.175067,40.1422667 L112.699067,40.0929333 L113.825733,43.0276 L112.691067,43.9876 L112.661733,44.0102667 L112.9844,44.8582667 L113.011067,44.9289333 L118.829733,39.9236 L118.857733,39.8982667 L118.549733,39.0982667 L118.5364,39.0622667 L110.899067,39.2209333 L110.823067,39.2222667 Z" id="Fill-32" fill="#1C1F28"></path>
                        <path d="M117.9128,49.3516 C116.130133,49.8036 115.082133,49.2929333 114.7048,47.7956 L114.4048,46.6129333 L119.683467,45.2836 L119.9968,46.5262667 C120.342133,47.9009333 119.582133,48.9316 117.9128,49.3516 L117.9128,49.3516 Z M113.3008,45.9169333 L113.8408,48.0649333 C114.083467,49.0236 114.554133,49.7076 115.242133,50.0956 C115.675467,50.3396 116.1888,50.4622667 116.7768,50.4622667 C117.1968,50.4622667 117.654133,50.3996 118.146133,50.2756 C119.214133,50.0076 120.031467,49.4902667 120.5128,48.7756 C120.9808,48.0836 121.1088,47.2462667 120.8848,46.3542667 L120.3288,44.1462667 L113.3528,45.9036 L113.3008,45.9169333 Z" id="Fill-34" fill="#1C1F28"></path>
                        <path d="M121.612,54.5026667 C121.674667,55.0333333 121.548,55.5026667 121.237333,55.896 C120.796,56.452 120.024,56.808 119.001333,56.9253333 C117.981333,57.0453333 117.145333,56.8706667 116.590667,56.4306667 C116.198667,56.1186667 115.970667,55.692 115.910667,55.16 C115.836,54.528 116.037333,53.9693333 116.492,53.5453333 C116.949333,53.1186667 117.650667,52.84 118.52,52.74 C118.729333,52.7146667 118.930667,52.7026667 119.125333,52.7026667 C119.872,52.7026667 120.488,52.8826667 120.929333,53.2333333 C121.322667,53.544 121.552,53.972 121.612,54.5026667 M122.509333,54.4 C122.406667,53.504 121.96,52.7813333 121.218667,52.3106667 C120.481333,51.844 119.508,51.6626667 118.410667,51.7906667 C116.168,52.0506667 114.802667,53.448 115.012,55.2653333 C115.116,56.16 115.562667,56.8813333 116.304,57.352 C116.886667,57.7213333 117.616,57.9106667 118.438667,57.9106667 C118.656,57.9106667 118.881333,57.8973333 119.112,57.8706667 C120.212,57.744 121.116,57.348 121.728,56.7253333 C122.342667,56.1 122.612,55.296 122.509333,54.4" id="Fill-36" fill="#1C1F28"></path>
                        <polygon id="Fill-38" fill="#1C1F28" points="94.0650667 91.5912 93.4770667 90.9818667 93.4397333 90.9432 89.5824 94.6565333 89.5424 94.6938667 90.1344 95.3058667 90.1704 95.3445333 91.7757333 93.7978667 96.1464 98.3378667 96.1837333 98.3765333 96.8704 97.7165333 92.4624 93.1365333 94.0264 91.6272"></polygon>
                        <g id="Group-42" transform="translate(2.666667, 62.668000)">
                            <mask id="mask-4" fill="white">
                                <use xlink:href="#path-3"></use>
                            </mask>
                            <g id="Clip-41"></g>
                            <path d="M115.915333,1.1068 L115.912667,1.16013333 C114.712667,32.0254667 89.562,56.2028 58.658,56.2028 C27.7553333,56.2028 2.60733333,32.0254667 1.406,1.16013333 L1.40333333,1.1068 L0.33,1.14946667 L0.276666667,1.15213333 L0.278,1.20546667 C1.50333333,32.6788 27.1473333,57.3334667 58.658,57.3334667 C90.1686667,57.3334667 115.814,32.6788 117.040667,1.20546667 L117.043333,1.15213333 L115.968667,1.10946667 L115.915333,1.1068 Z" id="Fill-40" fill="#1C1F28" mask="url(#mask-4)"></path>
                        </g>
                        <polygon id="Fill-43" fill="#1C1F28" points="107.756533 81.9466667 108.132533 81.0666667 102.292533 78.5733333 103.1472 76.576 103.168533 76.5266667 102.337867 76.1733333 100.236533 81.092 100.216533 81.1413333 101.044533 81.4946667 101.9192 79.4506667 107.7072 81.9253333"></polygon>
                        <path d="M1.00266667,56.1589333 L1.14933333,54.8856 C1.22666667,54.2109333 1.52533333,53.6816 2.00933333,53.3522667 C2.52266667,53.0029333 3.22266667,52.8749333 4.09333333,52.9789333 C5.04266667,53.0882667 5.72533333,53.3762667 6.12266667,53.8336 C6.492,54.2576 6.62933333,54.8269333 6.54266667,55.5696 L6.404,56.7829333 L1.00266667,56.1589333 Z M7.19333333,57.8202667 L7.44666667,55.6229333 C7.68266667,53.5762667 6.53066667,52.3016 4.204,52.0322667 C3.11066667,51.9042667 2.164,52.1029333 1.46266667,52.5989333 C0.78,53.0802667 0.364,53.8176 0.257333333,54.7296 L0.00533333333,56.9362667 L0,56.9896 L7.14,57.8149333 L7.19333333,57.8202667 Z" id="Fill-45" fill="#1C1F28"></path>
                        <path d="M105.072933,69.0273333 L105.242267,67.7526667 C105.332933,67.078 105.640933,66.5526667 106.132933,66.2313333 C106.652933,65.8926667 107.3596,65.7766667 108.2316,65.8993333 C110.0556,66.1433333 110.842267,67.006 110.638267,68.5393333 L110.474267,69.7526667 L105.072933,69.0273333 Z M111.242267,70.81 L111.540933,68.61 C111.812933,66.5633333 110.6836,65.2646667 108.3596,64.9513333 C107.266267,64.806 106.314267,64.9846667 105.600933,65.4673333 C104.9076,65.9393333 104.476933,66.6686667 104.354267,67.5806667 L104.058267,69.7886667 L104.0516,69.8406667 L111.190267,70.8033333 L111.242267,70.81 Z" id="Fill-47" fill="#1C1F28"></path>
                        <polygon id="Fill-49" fill="#1C1F28" points="109.613333 77.1770667 110.772 72.9864 110.786667 72.9344 109.916 72.6957333 108.994667 76.0264 106.673333 75.3810667 107.517333 72.3264 106.685333 72.0970667 105.84 75.1517333 103.737333 74.5704 104.658667 71.2397333 103.788 70.9984 102.629333 75.1890667 102.614667 75.2410667 109.561333 77.1624"></polygon>
                        <path d="M70.9024,105.313867 L72.9224,108.589867 L70.4344,109.132533 L70.9024,105.313867 Z M70.3184,110.020533 L73.3850667,109.349867 L74.1624,110.617867 L74.1824,110.649867 L75.0664,110.4552 L75.1410667,110.440533 L71.0717333,103.9432 L71.0504,103.9112 L70.1810667,104.101867 L69.1877333,111.668533 L69.1784,111.7432 L70.1370667,111.532533 L70.3184,110.020533 Z" id="Fill-51" fill="#1C1F28"></path>
                        <polygon id="Fill-53" fill="#1C1F28" points="28.724 18.2188 32.1 15.8481333 32.1426667 15.8161333 31.6546667 15.1201333 31.624 15.0774667 28.976 16.9348 25.3506667 11.7681333 25.3186667 11.7254667 24.5453333 12.2694667 28.6933333 18.1761333"></polygon>
                        <polygon id="Fill-55" fill="#1C1F28" points="31.7694667 6.91146667 32.1441333 5.23546667 31.1628 5.77146667 31.1374667 5.7848 31.0348 7.3128 31.7481333 6.92346667"></polygon>
                        <polygon id="Fill-57" fill="#1C1F28" points="76.8242667 109.8764 80.7029333 108.4804 80.7522667 108.461733 80.4482667 107.6124 77.4069333 108.707067 75.2722667 102.775067 75.2536 102.725733 74.4136 103.0244 74.3642667 103.043067 76.8056 109.827067"></polygon>
                        <polygon id="Fill-59" fill="#1C1F28" points="42.2434667 108.602933 42.6181333 107.784267 39.6914667 106.428267 42.3328 100.712267 42.3554667 100.664267 41.4981333 100.2696 38.4781333 106.8056 38.4554667 106.8536 42.1954667 108.580267"></polygon>
                        <path d="M82.6966667,49.2592 C82.6966667,53.6578667 79.1166667,57.2365333 74.7166667,57.2365333 C70.318,57.2365333 66.738,53.6578667 66.738,49.2592 C66.738,47.9245333 67.0633333,46.5632 68.6833333,43.9018667 L74.7166667,34.5605333 L80.742,43.8912 C82.37,46.5632 82.6966667,47.9258667 82.6966667,49.2592 M83.8246667,49.2592 C83.8246667,47.7325333 83.4686667,46.2018667 81.6966667,43.2912 L74.7606667,32.5498667 L74.7166667,32.4792 L67.7273333,43.3058667 C65.9646667,46.2045333 65.6113333,47.7325333 65.6113333,49.2592 C65.6113333,54.2818667 69.6953333,58.3672 74.7166667,58.3672 C79.738,58.3672 83.8246667,54.2818667 83.8246667,49.2592" id="Fill-61" fill="#1C1F28"></path>
                        <polygon id="Fill-63" fill="#1C1F28" points="82.4336 107.700533 86.1069333 105.8472 86.1549333 105.8232 85.7482667 105.017867 82.8709333 106.469867 80.0336 100.849867 80.0096 100.801867 79.2162667 101.2032 79.1696 101.228533 82.4082667 107.652533"></polygon>
                        <path d="M34.1250667,100.043067 C34.5984,99.3070667 35.1597333,98.8004 35.7477333,98.5790667 C35.9717333,98.4937333 36.1984,98.4524 36.4210667,98.4524 C36.7757333,98.4524 37.1250667,98.5590667 37.4544,98.7697333 C37.9050667,99.0604 38.1864,99.4577333 38.2917333,99.9484 C38.4410667,100.641733 38.2250667,101.4644 37.6677333,102.3284 C36.7077333,103.813733 35.4304,104.301733 34.3357333,103.601733 C33.2450667,102.8924 33.1637333,101.5284 34.1250667,100.043067 M33.8504,104.355067 C34.3384,104.6724 34.8610667,104.831067 35.3944,104.831067 C35.6890667,104.831067 35.9864,104.783067 36.2824,104.6844 C37.1104,104.4124 37.8677333,103.7764 38.4690667,102.845733 C39.6930667,100.9484 39.4810667,99.0070667 37.9424,98.0150667 C37.1850667,97.5230667 36.3424,97.4097333 35.5104,97.6844 C34.6797333,97.9590667 33.9250667,98.5950667 33.3237333,99.5257333 C32.0997333,101.421733 32.3130667,103.363067 33.8504,104.355067" id="Fill-65" fill="#1C1F28"></path>
                        <path d="M50.6666667,8.5092 C50.8613333,8.5092 51.0613333,8.4892 51.2666667,8.45053333 C52.8346667,8.1492 53.6946667,6.9212 53.508,5.24253333 L53.5013333,5.1932 L52.58,5.2492 L52.5266667,5.2532 L52.5293333,5.30786667 C52.6413333,6.58386667 52.1453333,7.36386667 51.0946667,7.5652 C50.9546667,7.59186667 50.8173333,7.6052 50.6853333,7.6052 C49.596,7.6052 48.7893333,6.7132 48.488,5.13986667 C48.1573333,3.39986667 48.7453333,2.16786667 50.0226667,1.9252 C51.0066667,1.73986667 51.7493333,2.22253333 52.1666667,3.3372 L52.1853333,3.38786667 L53.0773333,3.05186667 L53.0613333,3.00386667 C52.5693333,1.53453333 51.312,0.759866667 49.8533333,1.03853333 C48.0573333,1.37986667 47.132,3.09986667 47.552,5.3172 C47.9333333,7.31453333 49.1253333,8.5092 50.6666667,8.5092" id="Fill-67" fill="#1C1F28"></path>
                        <polygon id="Fill-69" fill="#1C1F28" points="45.9530667 9.5664 46.8077333 9.32106667 46.8597333 9.30773333 44.8810667 2.3864 44.8677333 2.3344 44.0117333 2.57973333 43.9597333 2.5944 45.9384 9.5144"></polygon>
                        <path d="M40.8412,11.3008 C41.1985333,11.3008 41.5665333,11.2301333 41.9372,11.0861333 C43.5145333,10.4728 44.1052,8.97546667 43.4425333,7.27146667 L43.1598667,6.5488 L40.6478667,7.5248 L40.5985333,7.5448 L40.9252,8.38346667 L42.6185333,7.72346667 C42.8505333,8.3048 42.8705333,8.84613333 42.6812,9.29146667 C42.5012,9.71413333 42.1318667,10.0434667 41.6105333,10.2448 C41.0158667,10.4754667 40.4238667,10.4221333 39.8985333,10.0901333 C39.3692,9.75546667 38.9212,9.14746667 38.6038667,8.33146667 C38.2865333,7.51946667 38.2052,6.7688 38.3692,6.16213333 C38.5318667,5.5608 38.9318667,5.1208 39.5265333,4.8888 C40.4532,4.53413333 41.2478667,4.83946667 41.8292,5.78346667 L41.8585333,5.8288 L42.6718667,5.3288 L42.6465333,5.28346667 C41.9118667,4.0048 40.5585333,3.51813333 39.1998667,4.05146667 C37.4665333,4.72346667 36.8825333,6.5408 37.7132,8.67946667 C38.3678667,10.3581333 39.5318667,11.3008 40.8412,11.3008" id="Fill-71" fill="#1C1F28"></path>
                        <path d="M32.22,8.2708 C32.5226667,8.10546667 32.8346667,8.02146667 33.1466667,8.02146667 C33.4133333,8.02146667 33.6786667,8.08146667 33.9386667,8.2028 C34.508,8.4668 35.032,9.01346667 35.4533333,9.78146667 C35.8746667,10.5481333 36.0533333,11.2841333 35.9693333,11.9081333 C35.884,12.5241333 35.544,13.0134667 34.9826667,13.3201333 C33.844,13.9414667 32.6013333,13.3654667 31.748,11.8094667 C30.8973333,10.2534667 31.0773333,8.89746667 32.22,8.2708 M32.964,14.2641333 C33.316,14.4094667 33.6746667,14.4801333 34.0306667,14.4801333 C34.5013333,14.4801333 34.9693333,14.3561333 35.4173333,14.1108 C37.0253333,13.2294667 37.3773333,11.3054667 36.292,9.32146667 C35.2053333,7.34013333 33.3946667,6.6028 31.784,7.47746667 C30.1773333,8.36013333 29.8266667,10.2868 30.9133333,12.2694667 C31.4453333,13.2428 32.1546667,13.9321333 32.964,14.2641333" id="Fill-73" fill="#1C1F28"></path>
                        <polygon id="Fill-75" fill="#1C1F28" points="88.4817333 104.313867 88.5097333 104.3592 89.2630667 103.868533 89.3084 103.840533 87.6630667 101.305867 87.4897333 96.4618667 87.4857333 96.3672 86.5857333 96.9525333 86.5604 96.9685333 86.7497333 100.788533 83.3750667 99.0725333 83.3470667 99.0605333 82.4204 99.6605333 86.8630667 101.8272"></polygon>
                        <path d="M56.0833333,5.30213333 L57.106,1.58213333 L58.6273333,5.1288 L56.0833333,5.30213333 Z M55.838,6.16346667 L58.9793333,5.94746667 L59.5593333,7.31946667 L59.5753333,7.35413333 L60.5566667,7.2848 L57.474,0.251466667 L57.458,0.2168 L56.566,0.2768 L54.478,7.63013333 L54.4566667,7.70346667 L55.438,7.6368 L55.838,6.16346667 Z" id="Fill-77" fill="#1C1F28"></path>
                        <path d="M72.7994667,66.3997333 L72.8008,66.3997333 C73.5781333,66.3997333 74.3074667,66.7024 74.8541333,67.2504 C75.3914667,67.7877333 75.6874667,68.4984 75.7061333,69.3050667 L75.7061333,78.3570667 C75.7061333,80.5944 77.5274667,82.4144 79.7674667,82.4144 C82.0034667,82.4144 83.8248,80.5944 83.8248,78.3570667 L83.8248,63.1130667 L82.6968,63.1130667 L82.6968,78.3570667 C82.6968,79.9730667 81.3821333,81.2864 79.7674667,81.2864 C78.1514667,81.2864 76.8354667,79.9730667 76.8354667,78.3570667 L76.8328,69.2050667 C76.8088,68.1677333 76.3888,67.1904 75.6554667,66.4517333 C74.0821333,64.8810667 71.5194667,64.8810667 69.9461333,66.4517333 L52.8474667,83.5530667 C52.2941333,84.1050667 51.5568,84.4104 50.7728,84.4104 L50.7714667,84.4104 C49.9901333,84.4104 49.2541333,84.1050667 48.7048,83.5530667 C47.5608,82.4104 47.5608,80.5504 48.7048,79.4077333 L63.0234667,65.0917333 L62.2221333,64.2917333 L47.9061333,78.6104 L45.7821333,80.7330667 C45.2314667,81.2850667 44.4968,81.5890667 43.7141333,81.5904 L43.7114667,81.5904 C42.9274667,81.5904 42.1914667,81.2850667 41.6394667,80.7330667 C41.0861333,80.1810667 40.7808,79.4450667 40.7808,78.6597333 C40.7808,77.8757333 41.0861333,77.1410667 41.6394667,76.5890667 L56.9408,61.2890667 L56.1448,60.4904 L43.4954667,73.1370667 C42.9448,73.6890667 42.2114667,73.9930667 41.4274667,73.9944 L41.4248,73.9944 C40.6408,73.9944 39.9048,73.6904 39.3528,73.1370667 C38.7994667,72.5850667 38.4941333,71.8490667 38.4941333,71.0637333 C38.4954667,70.2797333 38.7994667,69.5437333 39.3528,68.9930667 L51.3448,57.0010667 L50.5474667,56.2024 L42.2074667,64.5397333 C41.6554667,65.0930667 40.9194667,65.3957333 40.1354667,65.3957333 C39.3514667,65.3957333 38.6154667,65.0930667 38.0634667,64.5397333 C37.5114667,63.9877333 37.2074667,63.2517333 37.2074667,62.4677333 C37.2074667,61.6837333 37.5114667,60.9477333 38.0634667,60.3984 L55.8968,42.5624 C55.9421333,42.5144 60.3794667,37.8677333 63.8474667,37.8677333 C63.9314667,37.8677333 64.0154667,37.8717333 64.0981333,37.8757333 L64.1528,37.8797333 L64.2088,36.7517333 L64.1554667,36.7490667 C64.0808,36.7450667 64.0074667,36.7437333 63.9341333,36.7437333 C59.9461333,36.7437333 55.2914667,41.5650667 55.0928,41.7730667 L37.2661333,59.5970667 C36.4994667,60.3637333 36.0794667,61.3824 36.0794667,62.4677333 C36.0794667,63.5530667 36.4994667,64.5730667 37.2661333,65.3384 C38.0314667,66.1037333 39.0501333,66.5264 40.1368,66.5264 C40.1674667,66.5264 40.1981333,66.5237333 40.2274667,66.5197333 L38.5541333,68.1957333 C36.9741333,69.7784 36.9741333,72.3517333 38.5541333,73.9330667 C39.3208,74.6997333 40.3394667,75.1210667 41.4261333,75.1210667 C41.4568,75.1210667 41.4874667,75.1184 41.5168,75.1144 L40.8421333,75.7904 C40.0768,76.5557333 39.6554667,77.5757333 39.6554667,78.6597333 C39.6554667,79.7464 40.0768,80.7650667 40.8421333,81.5317333 C41.6048,82.2957333 42.6248,82.7157333 43.7128,82.7157333 C44.7981333,82.7157333 45.8168,82.2957333 46.5808,81.5317333 L46.7368,81.3744 C46.7061333,82.5117333 47.1181333,83.5637333 47.9061333,84.3517333 C48.6688,85.1144 49.6888,85.5357333 50.7768,85.5357333 C51.8634667,85.5357333 52.8821333,85.1144 53.6448,84.3517333 L70.7448,67.2504 C71.2928,66.7024 72.0221333,66.3997333 72.7994667,66.3997333" id="Fill-79" fill="#1C1F28"></path>
                        <path d="M49.5677333,107.195333 C49.0424,108.892667 47.9424,109.703333 46.6997333,109.33 C45.4517333,108.944667 45.0010667,107.652667 45.5224,105.955333 C45.7784,105.116667 46.1824,104.476667 46.6890667,104.102 C47.0237333,103.854 47.3984,103.728667 47.7917333,103.728667 C47.9864,103.728667 48.1877333,103.759333 48.3904,103.822 C49.6370667,104.204667 50.0877333,105.496667 49.5677333,107.195333 M48.6530667,102.956667 C47.7890667,102.688667 46.9437333,102.812667 46.2170667,103.302 C45.4917333,103.791333 44.9357333,104.611333 44.6104,105.672667 C43.9450667,107.838 44.6784,109.655333 46.4344,110.194 C46.7330667,110.284667 47.0277333,110.33 47.3144,110.33 C48.7130667,110.33 49.9277333,109.272667 50.4784,107.476667 C50.8424,106.291333 50.7957333,105.172667 50.3464,104.327333 C49.9930667,103.662 49.4090667,103.187333 48.6530667,102.956667" id="Fill-81" fill="#1C1F28"></path>
                        <path d="M16.2005333,27.5456 L14.7152,29.6122667 L12.5058667,26.4602667 L16.2005333,27.5456 Z M16.0992,31.5989333 L15.2218667,30.3509333 L17.0538667,27.7989333 L18.4792,28.2216 L18.5152,28.2336 L19.0872,27.4362667 L11.7152,25.3282667 L11.6792,25.3176 L11.1805333,26.0096 L11.1592,26.0389333 L15.5272,32.3962667 L16.0992,31.5989333 Z" id="Fill-83" fill="#1C1F28"></path>
                        <path d="M20.3385333,17.4934667 C20.3678667,16.9921333 20.5878667,16.5574667 20.9892,16.2014667 C21.3612,15.8708 21.7865333,15.7094667 22.2345333,15.7094667 C22.9612,15.7094667 23.7492,16.1321333 24.4772,16.9521333 C25.6532,18.2788 25.7798667,19.6388 24.8078667,20.5028 C24.3305333,20.9254667 23.7532,21.0774667 23.1465333,20.9534667 C22.5332,20.8214667 21.9012,20.4068 21.3185333,19.7521333 C20.6358667,18.9828 20.2972,18.2014667 20.3385333,17.4934667 M23.5305333,21.9108 C24.2038667,21.9108 24.8518667,21.6708 25.4078667,21.1788 C26.7772,19.9614667 26.6905333,18.0081333 25.1918667,16.3174667 C23.6905333,14.6281333 21.7598667,14.3094667 20.3918667,15.5254667 C19.7158667,16.1268 19.3785333,16.9068 19.4198667,17.7841333 C19.4598667,18.6574667 19.8692,19.5574667 20.6052,20.3868 C21.4972,21.3921333 22.5412,21.9108 23.5305333,21.9108" id="Fill-85" fill="#1C1F28"></path>
                        <path d="M53.582,105.865867 C53.9486667,105.493867 54.4033333,105.301867 54.914,105.301867 C55.0126667,105.301867 55.114,105.308533 55.218,105.324533 C56.2046667,105.464533 56.75,106.125867 56.7953333,107.237867 L56.798,107.289867 L57.7006667,107.256533 L57.7513333,107.253867 L57.7513333,107.2032 C57.7406667,105.724533 56.7953333,104.6352 55.3446667,104.428533 C54.434,104.301867 53.6233333,104.545867 52.986,105.137867 C52.35,105.728533 51.9313333,106.629867 51.7726667,107.7432 C51.614,108.8592 51.766,109.841867 52.2113333,110.585867 C52.658,111.333867 53.3726667,111.796533 54.278,111.925867 C54.442,111.948533 54.5993333,111.9592 54.7526667,111.9592 C56.1913333,111.9592 57.2366667,110.969867 57.4713333,109.3312 L57.5726667,108.612533 L57.5793333,108.5592 L54.906,108.1752 L54.8526667,108.169867 L54.7326667,109.0112 L54.726,109.064533 L56.5286667,109.3232 C56.4446667,109.9432 56.198,110.425867 55.814,110.721867 C55.4486667,111.001867 54.966,111.113867 54.406,111.028533 C53.114,110.844533 52.4673333,109.637867 52.7193333,107.8792 C52.8406667,107.009867 53.1406667,106.3152 53.582,105.865867" id="Fill-87" fill="#1C1F28"></path>
                        <path d="M28.1784,91.6784 L26.3450667,95.0584 L24.6357333,93.1757333 L28.1784,91.6784 Z M25.1877333,97.1757333 L25.7957333,97.8464 L25.8464,97.9037333 L29.4490667,91.1424 L29.4677333,91.1090667 L28.8690667,90.4504 L21.8197333,93.3570667 L21.7517333,93.3850667 L22.3824,94.0850667 L22.4077333,94.1130667 L23.8104,93.5157333 L25.9184,95.8410667 L25.2064,97.1424 L25.1877333,97.1757333 Z" id="Fill-89" fill="#1C1F28"></path>
                        <polygon id="Fill-91" fill="#1C1F28" points="59.1406667 112.154933 59.1393333 112.206933 60.0286667 112.240267 60.0833333 112.2416 60.33 105.0456 60.3313333 104.992267 59.4406667 104.9616 59.3873333 104.960267"></polygon>
                        <polygon id="Fill-93" fill="#1C1F28" points="11.6874667 39.4713333 12.1274667 38.638 7.1448 36.018 13.1808 36.562 13.2168 36.5646667 13.4154667 36.1886667 9.51813333 31.4953333 14.4581333 34.09 14.5048 34.114 14.9474667 33.274 8.5768 29.9206667 8.53013333 29.8953333 7.9848 30.9393333 7.96746667 30.97 11.8661333 35.6086667 5.86746667 35.0286667 5.83146667 35.026 5.27013333 36.0966667 11.6408 39.446"></polygon>
                        <polygon id="Fill-95" fill="#1C1F28" points="15.7018667 21.7434667 20.4112 25.9221333 20.4512 25.9568 21.0845333 25.2448 16.3378667 21.0314667 17.7805333 19.4061333 17.8152 19.3661333 17.1365333 18.7688 13.5845333 22.7701333 13.5498667 22.8101333 14.2285333 23.4074667"></polygon>
                        <path d="M17.1445333,65.7565333 L17.3058667,67.0272 C17.3925333,67.7032 17.2285333,68.2898667 16.8365333,68.7258667 C16.4192,69.1858667 15.7672,69.4752 14.8952,69.5832 C13.9072,69.7125333 13.1552,69.5792 12.6578667,69.1925333 C12.2338667,68.8658667 11.9858667,68.3618667 11.8965333,67.6525333 L11.7432,66.4418667 L17.1445333,65.7565333 Z M14.2312,70.5832 C14.4805333,70.5832 14.7418667,70.5658667 15.0152,70.5325333 C16.1085333,70.3938667 16.9832,69.9765333 17.5472,69.3272 C18.0952,68.6938667 18.3245333,67.8778667 18.2085333,66.9658667 L17.9285333,64.7578667 L17.9205333,64.7045333 L10.7818667,65.6125333 L10.7285333,65.6192 L11.0058667,67.8192 C11.2352,69.6218667 12.3712,70.5832 14.2312,70.5832 L14.2312,70.5832 Z" id="Fill-97" fill="#1C1F28"></path>
                        <polygon id="Fill-99" fill="#1C1F28" points="32.7057333 95.4544 34.3444 96.8704 34.3844 96.9064 34.9750667 96.2237333 30.9337333 92.7330667 30.8937333 92.6984 30.3017333 93.3784 31.9844 94.8304 27.8764 99.5864 27.8417333 99.6264 28.5630667 100.2504"></polygon>
                        <path d="M19.9869333,77.7084 L20.6322667,79.2150667 C21.0349333,80.1604 20.8482667,80.8057333 20.0789333,81.1350667 C19.7282667,81.2884 19.4082667,81.3070667 19.1296,81.1937333 C18.7922667,81.0590667 18.5109333,80.7310667 18.2922667,80.2177333 L17.6456,78.7070667 L19.9869333,77.7084 Z M15.2709333,82.8244 L15.7082667,83.8470667 L17.8162667,81.2204 C18.4429333,82.1604 19.4269333,82.4510667 20.4536,82.0137333 C21.0216,81.7710667 21.4269333,81.3844 21.6242667,80.8937333 C21.8482667,80.3364 21.8016,79.6550667 21.4896,78.9257333 L20.4682667,76.5337333 L20.4482667,76.4844 L13.8296,79.3124 L13.7802667,79.3337333 L14.1496,80.2004 L16.8149333,79.0630667 L17.3442667,80.2977333 L15.2909333,82.7990667 L15.2709333,82.8244 Z" id="Fill-101" fill="#1C1F28"></path>
                        <polygon id="Fill-103" fill="#1C1F28" points="13.0976 77.4141333 13.9176 77.1874667 13.9682667 77.1741333 13.0469333 73.8448 15.3656 73.2008 16.1976 76.2048 16.2109333 76.2554667 16.9936 76.0394667 17.0442667 76.0261333 16.1989333 72.9714667 18.3029333 72.3888 19.2122667 75.6688 19.2256 75.7208 20.0962667 75.4768 18.9362667 71.2888 18.9229333 71.2381333 11.9749333 73.1621333 11.9242667 73.1741333 13.0842667 77.3634667"></polygon>
                        <polygon id="Fill-105" fill="#1C1F28" points="20.0442667 91.086 20.5322667 91.8393333 20.5616 91.886 26.6029333 87.9873333 26.6482667 87.958 26.0122667 86.97 25.9936 86.9406667 20.0376 88.058 23.4896 83.1206667 23.5096 83.0926667 22.8802667 82.1206667 22.8509333 82.0753333 16.8122667 85.9766667 16.7669333 86.0046667 17.2482667 86.7513333 17.2776 86.7966667 22.0002667 83.75 18.5656 88.7313333 18.5456 88.7606667 18.7589333 89.0913333 18.7776 89.1206667 24.7749333 88.0326667 20.0896 91.058"></polygon>
                    </g>
                </g>
            </g>
        </g>
    </g>
</svg>