<?xml version="1.0" encoding="UTF-8"?>
<svg width="128px" height="128px" viewBox="0 0 128 128" version="1.1" xmlns="http://www.w3.org/2000/svg" xmlns:xlink="http://www.w3.org/1999/xlink">
    <title>43D18954-7470-45EC-AB15-5F4C2687A90E</title>
    <defs>
        <polygon id="path-1" points="0.895866667 0 6.8252 0 6.8252 8.63013333 0.895866667 8.63013333"></polygon>
        <polygon id="path-3" points="0 0.406266667 116.2972 0.406266667 116.2972 71.9996 0 71.9996"></polygon>
    </defs>
    <g id="r8" stroke="none" stroke-width="1" fill="none" fill-rule="evenodd">
        <g id="PDP-commerce-default" transform="translate(-195.000000, -8549.000000)">
            <g id="8.-section/mobile/4.-footer/sellos" transform="translate(0.000000, 8261.000000)">
                <g id="3.-icons/seal/bloque3/reguledmaterials" transform="translate(195.000000, 288.000000)">
                    <g id="elements" transform="translate(5.333333, 4.000000)">
                        <polygon id="Fill-1" fill="#1C1F28" points="7.75266667 59.5638667 7.71 60.5105333 14.8686667 60.8412 14.922 60.8438667 14.9593333 60.0478667 14.9593333 60.0332 13.9313333 58.2838667 13.9166667 58.2585333 12.91 58.2092 13.862 59.8412 7.806 59.5665333"></polygon>
                        <g id="Group-100">
                            <path d="M14.03,77.4414667 C14.154,77.1268 14.498,76.8374667 15.0246667,76.6081333 C15.3153333,76.4801333 15.6473333,76.3761333 15.9486667,76.3761333 C16.2926667,76.3761333 16.5993333,76.5108 16.7673333,76.8974667 C16.8686667,77.1294667 16.8793333,77.3508 16.798,77.5561333 C16.6713333,77.8761333 16.338,78.1561333 15.8046667,78.3881333 C15.3633333,78.5814667 14.9913333,78.6574667 14.69,78.5988 C14.3966667,78.5468 14.1833333,78.3721333 14.058,78.0814667 C13.9593333,77.8588 13.95,77.6441333 14.03,77.4414667 M13.2766667,77.0988 C13.1153333,77.5108 13.1326667,77.9614667 13.326,78.4001333 C13.63,79.0974667 14.214,79.4641333 14.9486667,79.4641333 C15.3166667,79.4641333 15.7233333,79.3708 16.1513333,79.1854667 C17.438,78.6228 17.9526667,77.6228 17.4993333,76.5788 C17.274,76.0668 16.89,75.7254667 16.3886667,75.5934667 C15.8926667,75.4628 15.302,75.5414667 14.678,75.8134667 C13.9686667,76.1228 13.4846667,76.5681333 13.2766667,77.0988" id="Fill-2" fill="#1C1F28"></path>
                            <path d="M23.28,96.2148 C23.3573333,95.5934667 23.716,94.9321333 24.3186667,94.3001333 C25.5373333,93.0228 26.8773333,92.7841333 27.816,93.6774667 C28.7546667,94.5721333 28.5813333,95.9214667 27.3626667,97.2014667 C26.1426667,98.4801333 24.8026667,98.7201333 23.864,97.8241333 C23.4053333,97.3854667 23.2013333,96.8294667 23.28,96.2148 M25.1866667,99.2734667 C26.1413333,99.2734667 27.1586667,98.7934667 28.052,97.8561333 C29.604,96.2268013 29.7586667,94.2854667 28.4373333,93.0241333 C27.116,91.7668 25.1853333,92.0134667 23.6293333,93.6441333 C22.8666667,94.4441333 22.4266667,95.3254667 22.356,96.1934667 C22.2853333,97.0654667 22.5906667,97.8534667 23.244,98.4748 C23.8066667,99.0108 24.4786667,99.2734667 25.1866667,99.2734667" id="Fill-4" fill="#1C1F28"></path>
                            <path d="M8.58066667,65.4322667 C8.53933333,64.8616 8.758,64.3656 9.21533333,63.9976 C9.68733333,63.6162667 10.406,63.3802667 11.2913333,63.3162667 C13.0526667,63.1909333 14.194,63.8416 14.2793333,65.0189333 C14.366,66.1949333 13.3273333,67.0056 11.5686667,67.1349333 C9.79133333,67.2576 8.66866667,66.6256 8.58066667,65.4322667 M11.1633333,68.0976 C11.3193333,68.0976 11.4766667,68.0922667 11.638,68.0802667 C13.9126667,67.9136 15.3006667,66.6856 15.1753333,64.9536 C15.114,64.1122667 14.7153333,63.4229333 14.0193333,62.9616 C13.3153333,62.4949333 12.3473333,62.2936 11.2193333,62.3722667 C10.0993333,62.4549333 9.17133333,62.7976 8.54066667,63.3682667 C7.92066667,63.9296 7.62333333,64.6656 7.68466667,65.4989333 C7.802,67.1096 9.15,68.0976 11.1633333,68.0976" id="Fill-6" fill="#1C1F28"></path>
                            <path d="M12.0469333,70.3489333 C12.4536,70.2569333 12.8309333,70.2102667 13.1762667,70.2102667 C13.7229333,70.2102667 14.1856,70.3249333 14.5469333,70.5529333 C14.9229333,70.7916 15.1656,71.1396 15.2656,71.5889333 C15.3936,72.1476 15.2496,72.6716 14.8522667,73.1049333 C14.4416,73.5542667 13.7642667,73.8969333 12.8976,74.0942667 C11.1469333,74.4876 9.94426667,74.0236 9.6776,72.8556 C9.41226667,71.6822667 10.2976,70.7449333 12.0469333,70.3489333 M10.2429333,74.8542667 C10.6989333,75.0662667 11.2322667,75.1729333 11.8189333,75.1729333 C12.2242667,75.1729333 12.6549333,75.1222667 13.1056,75.0209333 C14.2096,74.7702667 15.0776,74.2916 15.6176,73.6369333 C16.1482667,72.9902667 16.3309333,72.2129333 16.1442667,71.3889333 C15.7562667,69.6902667 14.0656,68.9142667 11.8376,69.4222667 C9.60693333,69.9276 8.4136,71.3529333 8.7976,73.0529333 C8.9856,73.8769333 9.48426667,74.4996 10.2429333,74.8542667" id="Fill-8" fill="#1C1F28"></path>
                            <path d="M111.334667,40.4934667 L111.334667,40.4948 C111.449333,42.0161333 111.277333,42.5854667 110.628,42.8468 C110.390667,42.9401333 110.141333,42.9388 109.910667,42.8374667 C109.549333,42.6828 109.237333,42.3081333 109.029333,41.7841333 C108.562667,40.6174667 108.854667,39.8001333 109.948,39.2148 L109.998667,39.1881333 L109.501333,38.3788 L109.457333,38.4028 C107.986667,39.1534667 107.536,40.4694667 108.190667,42.1081333 C108.497333,42.8801333 108.993333,43.4454667 109.586667,43.7001333 C109.817333,43.7988 110.056,43.8494667 110.296,43.8494667 C110.526667,43.8494667 110.757333,43.8028 110.984,43.7121333 C112.036,43.2948 112.38,42.4134667 112.252,40.4628 C112.146667,39.1281333 112.261333,38.6628 112.744,38.4708 C112.982667,38.3748 113.226667,38.3748 113.450667,38.4734667 C113.766667,38.6081333 114.036,38.9254667 114.210667,39.3654667 C114.545333,40.2014667 114.313333,40.9321333 113.538667,41.4788 L113.497333,41.5094667 L114.02,42.2934667 L114.064,42.2654667 C115.165333,41.5721333 115.552,40.3054667 115.049333,39.0414667 C114.542667,37.7708 113.449333,37.1761333 112.397333,37.5974667 C111.493333,37.9588 111.225333,38.6881333 111.334667,40.4934667" id="Fill-10" fill="#1C1F28"></path>
                            <polygon id="Fill-12" fill="#1C1F28" points="89.9349333 97.0924 89.3896 96.4310667 86.9536 98.4430667 85.4042667 96.5684 88.0162667 94.4097333 88.0576 94.3750667 87.5189333 93.7230667 87.4829333 93.6804 84.1496 96.4404 84.1082667 96.4750667 88.6722667 101.995067 88.7069333 102.0364 89.3882667 101.4724 89.4296 101.437733 87.5016 99.1057333 89.8936 97.1270667"></polygon>
                            <polygon id="Fill-14" fill="#1C1F28" points="75.2721333 102.583333 74.9668 101.735333 70.8961333 103.203333 70.8468 103.222 73.2761333 109.97 73.2948 110.019333 77.3681333 108.555333 77.4174667 108.538 77.1134667 107.69 73.8774667 108.856667 73.0654667 106.600667 75.9814667 105.552667 76.0308 105.534 75.7601333 104.772667 75.7428 104.722 72.7734667 105.794 72.0361333 103.748667 75.2228 102.602"></polygon>
                            <path d="M69.3021333,50.6601333 L69.2781333,50.6681333 L67.6874667,54.9921333 L66.1048,50.6908 L66.0968,50.6681333 L61.7674667,49.0774667 L66.0728,47.4934667 L66.0968,47.4854667 L67.6874667,43.1574667 L69.2714667,47.4628 L69.2781333,47.4854667 L73.6048,49.0774667 L69.3021333,50.6601333 Z M32.8128,73.1254667 L39.7741333,49.6374667 L60.0421333,49.6374667 L65.2194667,51.5401333 L67.6381333,58.1094667 L67.6874667,58.2454667 L70.1514667,51.5401333 L75.3301333,49.6374667 L76.5248,49.6374667 L83.4848,73.1254667 L32.8128,73.1254667 Z M77.3754667,48.5534667 L77.3648,48.5161333 L75.3301333,48.5161333 L70.1514667,46.6094667 L67.7368,40.0414667 L67.6874667,39.9054667 L65.2194667,46.6094667 L60.0421333,48.5161333 L38.9328,48.5161333 L31.3301333,74.1788 L31.3088,74.2468 L84.9888,74.2468 L77.3754667,48.5534667 Z" id="Fill-16" fill="#1C1F28"></path>
                            <polygon id="Fill-18" fill="#1C1F28" points="99.4830667 90.8645333 100.065733 90.1125333 94.4084 85.7138667 94.3670667 85.6805333 93.6270667 86.6325333 96.6350667 91.8618667 90.8577333 90.2418667 90.8244 90.2312 90.0844 91.1858667 95.7404 95.5858667 95.7830667 95.6178667 96.3604 94.8752 91.9377333 91.4365333 97.7550667 93.0298667 97.7897333 93.0392 98.0297333 92.7272 98.0524 92.7005333 95.0577333 87.4192 99.4417333 90.8312"></polygon>
                            <path d="M101.395867,72.6666667 L105.202533,72.3066667 L104.594533,74.7613333 L101.395867,72.6666667 Z M107.554533,72.092 L107.591867,72.088 L107.827867,71.1413333 L100.250533,71.912 L100.211867,71.916 L99.9985333,72.776 L106.3052,76.984 L106.367867,77.0266667 L106.6012,76.0813333 L105.334533,75.2546667 L106.086533,72.228 L107.554533,72.092 Z" id="Fill-20" fill="#1C1F28"></path>
                            <path d="M67.2630667,104.869733 C68.2550667,104.671067 68.9950667,105.147067 69.4257333,106.2484 L69.4457333,106.297733 L70.2817333,105.971067 L70.3297333,105.9524 L70.3124,105.903067 C69.8750667,104.655067 68.8857333,103.925733 67.7017333,103.925733 C67.5004,103.925733 67.2910667,103.947067 67.0790667,103.991067 C65.2924,104.359067 64.3977333,106.089733 64.8510667,108.293733 C65.0764,109.391067 65.5484,110.257733 66.2164,110.8044 C66.7217333,111.219067 67.3150667,111.431067 67.9577333,111.431067 C68.1684,111.431067 68.3830667,111.4084 68.6017333,111.363067 C70.1617333,111.043067 71.0017333,109.8044 70.7924,108.1324 L70.7870667,108.081733 L69.8124,108.153733 L69.8177333,108.2084 C69.9470667,109.481733 69.4630667,110.267067 68.4204,110.481733 C67.7897333,110.6124 67.2190667,110.4644 66.7604,110.053733 C66.2977333,109.637733 65.9590667,108.963067 65.7817333,108.1004 C65.4244,106.369733 65.9924,105.1324 67.2630667,104.869733" id="Fill-22" fill="#1C1F28"></path>
                            <polygon id="Fill-24" fill="#1C1F28" points="62.2590667 112.154933 63.3404 112.102933 62.9817333 104.8896 62.0310667 104.934933 62.3164 110.618933 58.8857333 105.120267 58.8684 105.0936 57.7977333 105.1456 58.1564 112.358933 59.0964 112.3136 58.8137333 106.6296 62.2417333 112.128267"></polygon>
                            <path d="M13.6081333,84.1510667 C13.4841333,83.8670667 13.5041333,83.5977333 13.6654667,83.3484 C13.8308,83.0950667 14.1361333,82.8684 14.5774667,82.6777333 C14.9254667,82.5230667 15.2334667,82.4470667 15.4948,82.4470667 C15.5641333,82.4470667 15.6294667,82.4524 15.6908,82.4617333 C15.9841333,82.5124 16.1948,82.6804 16.3188,82.9644 C16.4174667,83.1884 16.4268,83.4057333 16.3481333,83.6110667 C16.2254667,83.9257333 15.8814667,84.2150667 15.3534667,84.4470667 C14.7334667,84.7204 13.9308,84.8844 13.6081333,84.1510667 M16.1268,81.7217333 C15.5961333,81.5137333 14.9428,81.5684 14.2308,81.8804 C12.9454667,82.4444 12.4254667,83.4350667 12.8761333,84.4684 C13.1014667,84.9804 13.4854667,85.3244 13.9894667,85.4604 C14.1534667,85.5057333 14.3268,85.5270667 14.5081333,85.5270667 C14.8801333,85.5270667 15.2854667,85.4350667 15.7041333,85.2510667 C16.4094667,84.9444 16.8908,84.5017333 17.0988,83.9684 C17.2614667,83.5510667 17.2454667,83.0924 17.0481333,82.6444 C16.8548,82.2004 16.5348,81.8817333 16.1268,81.7217333" id="Fill-26" fill="#1C1F28"></path>
                            <polygon id="Fill-28" fill="#1C1F28" points="32.3697333 105.294267 33.1604 105.822267 37.1230667 99.8636 37.1537333 99.8196 36.1790667 99.1716 36.1497333 99.1529333 31.1644 102.534267 32.3484 96.6636 32.3564 96.6289333 31.3977333 95.9902667 31.3524 95.9609333 27.3897333 101.918267 27.3590667 101.962267 28.0977333 102.4516 28.1417333 102.482267 31.2390667 97.8262667 30.0857333 103.7356 30.0790667 103.770267 30.4337333 104.004933 35.4670667 100.6356 32.3990667 105.250267"></polygon>
                            <polygon id="Fill-30" fill="#1C1F28" points="19.97 81.6106667 20.0793333 80.8293333 20.086 80.776 10.51 79.5373333 10.4566667 79.5306667 10.366 80.3693333 19.918 81.604"></polygon>
                            <path d="M19.8306667,88.8502667 C20.544,88.3022667 21.2466667,88.0182667 21.8826667,88.0182667 C21.972,88.0182667 22.0613333,88.0236 22.1466667,88.0356 C22.6426667,88.1009333 23.0586667,88.3462667 23.3826667,88.7689333 C23.9933333,89.5662667 23.892,90.4476 23.088,91.3169333 L23.052,91.3556 L23.7493333,91.9996 L23.7866667,91.9636 C24.8786667,90.8649333 25,89.3956 24.0946667,88.2209333 C23.6173333,87.5996 22.972,87.2182667 22.2306667,87.1209333 C21.2786667,87.0022667 20.2253333,87.3449333 19.2493333,88.0996 C17.4386667,89.4916 16.9986667,91.3422667 18.1293333,92.8129333 C18.6986667,93.5529333 19.4466667,93.9342667 20.2533333,93.9342667 C20.8173333,93.9342667 21.412,93.7476 21.992,93.3702667 L22.0346667,93.3422667 L21.5426667,92.4969333 L21.496,92.5262667 C20.4106667,93.1996 19.4933333,93.1076 18.8413333,92.2622667 C18.04,91.2182667 18.4106667,89.9436 19.8306667,88.8502667" id="Fill-32" fill="#1C1F28"></path>
                            <polygon id="Fill-34" fill="#1C1F28" points="47.8294667 111.238267 48.7481333 111.422267 50.1428 104.3996 50.1534667 104.3476 49.2321333 104.1636 47.8401333 111.186267"></polygon>
                            <path d="M54.8633333,109.9232 L52.3433333,109.6912 L53.9366667,106.2112 L54.8633333,109.9232 Z M53.6513333,104.8432 L53.614,104.840533 L50.4006667,111.720533 L50.3686667,111.7872 L51.302,111.8752 L51.3393333,111.877867 L51.9673333,110.496533 L55.0793333,110.784533 L55.442,112.253867 L56.4166667,112.3432 L54.5086667,104.956533 L54.4993333,104.920533 L53.6513333,104.8432 Z" id="Fill-36" fill="#1C1F28"></path>
                            <path d="M72.2292,3.26693333 C72.7732,3.39493333 73.1452,3.61493333 73.3345333,3.91893333 C73.4892,4.16826667 73.5238667,4.47893333 73.4372,4.84426667 C73.3518667,5.21093333 73.1798667,5.4776 72.9252,5.63493333 C72.6185333,5.8256 72.1905333,5.8616 71.6465333,5.7336 L70.0585333,5.35893333 L70.6398667,2.8936 L72.2292,3.26693333 Z M69.8518667,6.23226667 L71.1518667,6.5376 L71.9465333,9.6576 L71.9545333,9.68826667 L73.0318667,9.94426667 L72.1705333,6.70293333 C72.2185333,6.7056 72.2665333,6.7056 72.3145333,6.7056 C73.3745333,6.7056 74.1158667,6.11626667 74.3625333,5.06026667 C74.6705333,3.74693333 73.9758667,2.75626667 72.5012,2.40826667 L69.9812,1.81493333 L69.9305333,1.80293333 L68.2905333,8.77226667 L68.2785333,8.82426667 L69.1918667,9.0376 L69.8518667,6.23226667 Z" id="Fill-38" fill="#1C1F28"></path>
                            <polygon id="Fill-40" fill="#1C1F28" points="25.7904 18.6588 29.3330667 16.2014667 29.3770667 16.1708 28.8650667 15.4361333 26.0477333 17.3868 24.6890667 15.4241333 27.2277333 13.6654667 27.2717333 13.6334667 26.8157333 12.9734667 26.7837333 12.9294667 24.2024 14.7201333 22.9704 12.9414667 25.7424 11.0214667 25.7864 10.9908 25.2730667 10.2534667 21.7304 12.7081333 21.6864 12.7401333 25.7597333 18.6148"></polygon>
                            <path d="M30.8125333,11.4688 L30.8138667,11.4688 C32.3138667,11.1808 32.9058667,11.2861333 33.2405333,11.9034667 C33.5578667,12.4901333 33.2152,13.1634667 32.3672,13.6221333 C31.2592,14.2221333 30.4098667,14.0288 29.7005333,13.0034667 L29.6685333,12.9568 L28.9552,13.5154667 L28.9165333,13.5461333 L28.9445333,13.5874667 C29.5218667,14.4514667 30.2738667,14.8888 31.1365333,14.8888 C31.6525333,14.8888 32.2058667,14.7341333 32.7858667,14.4194667 C33.4365333,14.0688 33.9005333,13.6008 34.1338667,13.0621333 C34.3685333,12.5221333 34.3432,11.9634667 34.0645333,11.4474667 C33.5245333,10.4461333 32.6098667,10.2074667 30.6738667,10.5621333 C29.3565333,10.8194667 28.8792,10.7594667 28.6312,10.3021333 C28.4858667,10.0328 28.4752,9.74346667 28.6018667,9.46613333 C28.7298667,9.18346667 28.9898667,8.93146667 29.3525333,8.73413333 C30.1485333,8.3048 30.9045333,8.4488 31.5378667,9.15946667 L31.5725333,9.19813333 L32.2952,8.58746667 L32.2632,8.54746667 C31.4392,7.52746667 30.1312,7.28613333 28.9312,7.93813333 C27.7258667,8.59146667 27.2605333,9.7488 27.8032,10.7514667 C28.2672,11.6101333 29.0258667,11.7954667 30.8125333,11.4688" id="Fill-42" fill="#1C1F28"></path>
                            <path d="M43.0038667,3.35813333 C44.1478667,3.05546667 45.1358667,3.93813333 45.5825333,5.6488 C46.0265333,7.35813333 45.5905333,8.60613333 44.4452,8.90346667 C43.2972,9.20746667 42.3105333,8.32346667 41.8665333,6.61413333 C41.4172,4.87813333 41.8412,3.6608 43.0038667,3.35813333 M43.9705333,9.86746667 C44.1972,9.86746667 44.4305333,9.83546667 44.6692,9.77413333 C45.4878667,9.56213333 46.0958667,9.0448 46.4252,8.27546667 C46.7598667,7.49546667 46.7878667,6.50346667 46.5038667,5.4088 C46.2185333,4.31413333 45.7132,3.46213333 45.0412,2.94346667 C44.3772,2.43013333 43.5892,2.27413333 42.7772,2.48746667 C41.0892,2.9248 40.3705333,4.63813333 40.9452,6.85146667 C41.4412,8.7528 42.5878667,9.86746667 43.9705333,9.86746667" id="Fill-44" fill="#1C1F28"></path>
                            <polygon id="Fill-46" fill="#1C1F28" points="36.3528 6.9752 37.4888 5.46853333 39.5688 11.1538667 39.5874667 11.2045333 40.4794667 10.8765333 38.0194667 4.15386667 38.0008 4.10453333 37.2394667 4.38186667 36.0248 6.0032 36.0074667 6.0272 36.3208 6.8832"></polygon>
                            <g id="Group-50" transform="translate(56.000000, 0.000000)">
                                <mask id="mask-2" fill="white">
                                    <use xlink:href="#path-1"></use>
                                </mask>
                                <g id="Clip-49"></g>
                                <polygon id="Fill-48" fill="#1C1F28" mask="url(#mask-2)" points="0.895866667 8.19146667 1.6172 8.63013333 6.79853333 0.506133333 6.8252 0.462133333 6.1612 0.0301333333 6.1172 -0.000533333333 0.923866667 8.14613333"></polygon>
                            </g>
                            <path d="M57.1628,1.3568 L57.1921333,1.3568 C58.0041333,1.3808 58.1534667,2.1888 58.1348,2.86346667 C58.1174667,3.53013333 57.9294667,4.31813333 57.1441333,4.31813333 L57.1148,4.31813333 C56.4934667,4.3008 56.1668,3.76613333 56.1908,2.8128 C56.2174667,1.8728 56.5628,1.3568 57.1628,1.3568 M57.0934667,5.11413333 C57.1134667,5.11413333 57.1334667,5.11546667 57.1534667,5.11546667 C58.2574667,5.11546667 58.9668,4.26746667 59.0054667,2.88613333 C59.0414667,1.4848 58.3561333,0.594133333 57.2134667,0.5608 C57.1934667,0.5608 57.1748,0.559466667 57.1561333,0.559466667 C56.6241333,0.559466667 56.1748,0.763466667 55.8534667,1.14746667 C55.5254667,1.53813333 55.3428,2.10613333 55.3241333,2.78746667 C55.3054667,3.4688 55.4588,4.04613333 55.7681333,4.45546667 C56.0801333,4.8728 56.5388,5.09946667 57.0934667,5.11413333" id="Fill-51" fill="#1C1F28"></path>
                            <path d="M62.4505333,7.30333333 L62.4198667,7.30333333 C61.7985333,7.286 61.4718667,6.75133333 61.4958667,5.79666667 C61.5225333,4.85933333 61.8678667,4.34466667 62.4678667,4.34466667 L62.4972,4.34466667 C62.7438667,4.35 62.9452,4.434 63.0958667,4.59266667 C63.3332,4.84066667 63.4452,5.26333333 63.4305333,5.84866667 C63.4118667,6.51533333 63.2252,7.30333333 62.4505333,7.30333333 M61.2932,3.99 C60.8785333,4.382 60.6492,4.998 60.6305333,5.77533333 C60.6078667,6.55 60.8038667,7.17533333 61.1945333,7.59 C61.4972,7.91 61.9145333,8.08733333 62.3985333,8.10066667 C62.4185333,8.10066667 62.4358667,8.102 62.4558667,8.102 C63.5625333,8.10066667 64.2718667,7.25266667 64.3105333,5.87266667 C64.3292,5.10466667 64.1318667,4.47933333 63.7372,4.06333333 C63.4278667,3.738 63.0065333,3.55933333 62.5185333,3.54866667 C62.0345333,3.53 61.6118667,3.68733333 61.2932,3.99" id="Fill-53" fill="#1C1F28"></path>
                            <path d="M49.1809333,2.8464 C49.4516,2.32506667 49.8956,2.01173333 50.4636,1.93973333 C50.5409333,1.9304 50.6169333,1.92506667 50.6916,1.92506667 C51.7476,1.92506667 52.5182667,2.90106667 52.7262667,4.53706667 C52.9502667,6.3144 52.3742667,7.46506667 51.1836,7.61573333 C50.6142667,7.69573333 50.1076,7.49573333 49.7142667,7.0584 C49.3089333,6.6064 49.0342667,5.90106667 48.9236,5.01973333 C48.8116,4.13706667 48.8996,3.38506667 49.1809333,2.8464 M50.9329333,8.53306667 C51.0529333,8.53306667 51.1742667,8.52506667 51.2982667,8.50906667 C53.0249333,8.28773333 53.9542667,6.6824 53.6689333,4.41706667 C53.5076,3.1464 53.0129333,2.1304 52.2716,1.55706667 C51.7262667,1.1344 51.0609333,0.959733333 50.3516,1.04906667 C49.5129333,1.1544 48.8462667,1.59173333 48.4222667,2.31173333 C47.9902667,3.03973333 47.8382667,4.01706667 47.9809333,5.13973333 C48.2476,7.2424 49.3889333,8.53306667 50.9329333,8.53306667" id="Fill-55" fill="#1C1F28"></path>
                            <polygon id="Fill-57" fill="#1C1F28" points="7.1524 43.9128 7.5204 43.0488 2.36306667 40.8461333 8.40173333 40.9074667 8.4364 40.9074667 8.6004 40.5181333 4.36706667 36.1754667 9.4684 38.3541333 9.51773333 38.3754667 9.89106667 37.5008 3.3044 34.6874667 3.25506667 34.6661333 2.79373333 35.7448 2.78173333 35.7768 7.01906667 40.0661333 1.0244 39.9674667 0.9884 39.9674667 0.513733333 41.0781333 7.10306667 43.8914667"></polygon>
                            <polygon id="Fill-59" fill="#1C1F28" points="10.7708 35.9778667 12.9788 32.2712 13.0068 32.2258667 12.2348 31.7672 10.4801333 34.7125333 8.42546667 33.4898667 10.0081333 30.8312 10.0348 30.7845333 9.2988 30.3472 7.68813333 33.0525333 5.82813333 31.9445333 7.5548 29.0418667 7.58146667 28.9965333 6.8108 28.5378667 4.60413333 32.2445333 4.57613333 32.2898667 10.7254667 35.9498667"></polygon>
                            <g id="Group-63" transform="translate(0.000000, 48.000000)">
                                <mask id="mask-4" fill="white">
                                    <use xlink:href="#path-3"></use>
                                </mask>
                                <g id="Clip-62"></g>
                                <path d="M114.7292,0.458266667 L114.715867,0.406266667 L113.6772,0.6516 L113.6252,0.6636 L113.6372,0.714266667 C114.6572,5.04226667 115.174533,9.4636 115.174533,13.8569333 C115.174533,45.2982667 89.5918667,70.8769333 58.1478667,70.8769333 C26.7038667,70.8769333 1.12253333,45.2982667 1.12253333,13.8569333 C1.12253333,9.4596 1.6412,5.0396 2.66253333,0.714266667 L2.67453333,0.6636 L1.5812,0.406266667 L1.56786667,0.458266667 C0.527866667,4.87426667 -0.000133333333,9.38093333 -0.000133333333,13.8569333 C-0.000133333333,45.9169333 26.0865333,71.9996 58.1478667,71.9996 C90.2105333,71.9996 116.2972,45.9169333 116.2972,13.8569333 C116.2972,9.3756 115.7692,4.86893333 114.7292,0.458266667" id="Fill-61" fill="#1C1F28" mask="url(#mask-4)"></path>
                            </g>
                            <path d="M17.9830667,22.526 L16.2550667,24.37 L14.4884,20.982 L17.9830667,22.526 Z M16.6964,27.214 L17.3644,26.5033333 L16.6604,25.1633333 L18.7950667,22.8846667 L20.1777333,23.5006667 L20.7910667,22.8446667 L20.8444,22.79 L13.8524,19.762 L13.8190667,19.7473333 L13.2110667,20.394 L16.6630667,27.1473333 L16.6964,27.214 Z" id="Fill-64" fill="#1C1F28"></path>
                            <polygon id="Fill-66" fill="#1C1F28" points="8.556 27.5038667 9.9 25.7385333 14.892 29.5385333 14.9346667 29.5705333 15.48 28.8558667 15.512 28.8118667 10.4733333 24.9812 11.7853333 23.2585333 11.816 23.2158667 11.1426667 22.7038667 11.1 22.6732 7.86933333 26.9172 7.83866667 26.9598667 8.51333333 27.4732"></polygon>
                            <polygon id="Fill-68" fill="#1C1F28" points="21.6588 22.0989333 24.7694667 19.4282667 24.8094667 19.3936 24.2214667 18.7096 21.7868 20.8016 17.7001333 16.0496 17.6654667 16.0096 16.9521333 16.6229333 21.6241333 22.0589333"></polygon>
                            <polygon id="Fill-70" fill="#1C1F28" points="78.5964 11.8802667 78.8817333 11.0869333 78.8990667 11.0362667 75.6657333 9.87093333 76.4777333 7.61493333 79.3937333 8.6696 79.4444 8.6856 79.7190667 7.9256 79.7350667 7.87493333 76.7670667 6.80826667 77.5044 4.76293333 80.6884 5.91093333 80.7390667 5.92826667 81.0270667 5.13226667 81.0444 5.0816 76.9737333 3.61626667 76.9230667 3.59893333 74.4924 10.3482667 74.4750667 10.3989333 78.5457333 11.8629333"></polygon>
                            <polygon id="Fill-72" fill="#1C1F28" points="105.430933 79.47 99.5269333 77.206 100.3216 75.1353333 99.4802667 74.814 97.5509333 79.8393333 98.3922667 80.1633333 99.1869333 78.0926667 105.090933 80.358"></polygon>
                            <polygon id="Fill-74" fill="#1C1F28" points="101.416667 87.8749333 103.492667 84.0856 103.518 84.0389333 102.73 83.6056 101.080667 86.6176 98.9833333 85.4682667 100.467333 82.7522667 100.494 82.7056 99.742 82.2922667 98.2286667 85.0562667 96.3273333 84.0136 97.95 81.0482667 97.9766667 81.0016 97.1873333 80.5696 95.11 84.3576 95.0833333 84.4042667 101.37 87.8482667"></polygon>
                            <polygon id="Fill-76" fill="#1C1F28" points="108.067733 69.3724 108.5224 65.3084 108.527733 65.2550667 107.689067 65.1630667 107.637067 65.1577333 107.281067 68.3417333 101.067733 67.6484 101.0144 67.6430667 100.915733 68.5204 100.9104 68.5737333 108.0144 69.3670667"></polygon>
                            <path d="M40.6576,102.364533 C41.1669333,102.5912 41.4762667,102.864533 41.6056,103.197867 C41.7176,103.492533 41.6856,103.828533 41.5109333,104.224533 C41.1336,105.065867 40.5336,105.244533 39.5669333,104.817867 L37.9136,104.0792 L39.0056,101.6272 L40.6576,102.364533 Z M37.5456,104.900533 L39.2456,105.6592 C40.6402667,106.281867 41.8082667,105.888533 42.3789333,104.613867 C42.9536,103.324533 42.4629333,102.1832 41.0736,101.561867 L38.5122667,100.4232 L35.5882667,106.9792 L35.5669333,107.028533 L36.4282667,107.412533 L37.5456,104.900533 Z" id="Fill-78" fill="#1C1F28"></path>
                            <path d="M103.451867,52.6237333 L103.462533,52.6757333 L104.5612,52.4544 L104.550533,52.4024 C100.1012,30.4437333 80.5865333,14.5064 58.1478667,14.5064 C35.7105333,14.5064 16.1958667,30.4437333 11.7465333,52.4024 L11.7358667,52.4544 L12.8358667,52.6757333 L12.8465333,52.6237333 C17.1932,31.1890667 36.2452,15.6304 58.1478667,15.6304 C80.0532,15.6304 99.1052,31.1890667 103.451867,52.6237333" id="Fill-80" fill="#1C1F28"></path>
                            <polygon id="Fill-82" fill="#1C1F28" points="46.0494667 110.881467 46.3014667 110.020133 43.2308 109.116133 44.9974667 103.120133 45.0134667 103.068133 44.1121333 102.800133 42.0908 109.660133 42.0761333 109.712133 45.9974667 110.865467"></polygon>
                            <path d="M81.0156,99.4270667 C81.3342667,99.2324 81.6636,99.1350667 81.9996,99.1350667 C82.1436,99.1350667 82.2862667,99.1524 82.4316,99.1870667 C83.1169333,99.3550667 83.7622667,99.9070667 84.2929333,100.783067 C84.7462667,101.527067 84.9556,102.2484 84.8982667,102.8724 C84.8436,103.4884 84.5276,103.9884 83.9862667,104.317733 C82.8796,104.989733 81.6222667,104.469733 80.7049333,102.961733 C79.7889333,101.455067 79.9089333,100.099067 81.0156,99.4270667 M82.9756,105.515067 C83.4756,105.515067 83.9769333,105.3764 84.4516,105.087067 C86.0102667,104.141733 86.2729333,102.213733 85.1076,100.289733 C83.9382667,98.3684 82.1036,97.7110667 80.5462667,98.6604 C79.7796,99.1257333 79.3129333,99.8310667 79.1956,100.6964 C79.0796,101.559067 79.3209333,102.5124 79.8942667,103.455067 C80.7049333,104.791067 81.8356,105.515067 82.9756,105.515067" id="Fill-84" fill="#1C1F28"></path>
                            <path d="M106.727867,58.3568 L106.6972,58.3568 C105.562533,58.3728 104.9252,59.0741333 104.3492,60.9461333 C103.9692,62.2328 103.695867,62.6261333 103.1772,62.6328 L103.159867,62.6328 C102.543867,62.6328 102.1372,62.1008 102.122533,61.2714667 C102.1092,60.3688 102.5892,59.7674667 103.506533,59.5341333 L103.5572,59.5208 L103.351867,58.6021333 L103.3012,58.6114667 C102.0212,58.8661333 101.2052,59.9114667 101.222533,61.2754667 C101.246533,62.6341333 102.039867,63.5728 103.158533,63.5728 L103.1932,63.5728 C104.166533,63.5568 104.6772,62.9688 105.2172,61.2394667 C105.647867,59.7981333 106.027867,59.3074667 106.719867,59.2941333 L106.734533,59.2941333 C107.379867,59.2941333 107.823867,59.9208 107.838533,60.8594667 C107.858533,62.1168 107.2932,62.7768 106.059867,62.9368 L106.003867,62.9434667 L106.178533,63.8754667 L106.226533,63.8701333 C107.874533,63.6928 108.7652,62.6208 108.7372,60.8541333 C108.714533,59.3554667 107.9092,58.3568 106.727867,58.3568" id="Fill-86" fill="#1C1F28"></path>
                            <path d="M86.7044,15.444 C86.8284,16.06 87.2430667,16.6066667 87.9404,17.0706667 C88.5070667,17.4466667 89.0497333,17.6333333 89.5564,17.6333333 C90.3044,17.6333333 90.9710667,17.2253333 91.5084,16.4186667 L94.1617333,12.4293333 L94.1910667,12.384 L93.4444,11.8906667 L93.3990667,11.86 L90.7417333,15.8586667 C90.4417333,16.3093333 90.0924,16.58 89.7057333,16.6573333 C89.3177333,16.7426667 88.8910667,16.6226667 88.4390667,16.3213333 C87.9937333,16.0266667 87.7297333,15.684 87.6524,15.3053333 C87.5737333,14.9146667 87.6924,14.4786667 88.0044,14.012 L90.6204,10.0786667 L90.6497333,10.0333333 L89.8697333,9.512 L87.1884,13.5426667 C86.7470667,14.204 86.5844,14.8453333 86.7044,15.444" id="Fill-88" fill="#1C1F28"></path>
                            <polygon id="Fill-90" fill="#1C1F28" points="91.5664 19.4805333 94.6930667 22.1192 94.7330667 22.1552 95.3144 21.4712 92.8650667 19.4005333 96.9037333 14.6192 96.9384 14.5792 96.2597333 14.0085333 96.2184 13.9738667 91.6010667 19.4405333"></polygon>
                            <path d="M80.7265333,12.1106667 C80.9638667,12.8146667 81.4652,13.3746667 82.1798667,13.7306667 C82.6212,13.9506667 83.0652,14.0613333 83.4945333,14.0613333 C83.7918667,14.0613333 84.0812,14.008 84.3572,13.904 C85.0332,13.6453333 85.6038667,13.084 86.0038667,12.2813333 L86.3505333,11.5853333 L83.8958667,10.364 L83.4945333,11.1706667 L85.1158667,11.98 C84.8438667,12.5373333 84.4612,12.916 84.0052,13.076 C83.5758667,13.2226667 83.0798667,13.176 82.5798667,12.9253333 C81.4185333,12.348 81.1865333,11.0053333 81.9745333,9.42133333 C82.7612,7.84133333 83.9732,7.216 85.1358667,7.79333333 C86.0225333,8.23466667 86.3278667,9.03066667 86.0225333,10.0973333 L86.0065333,10.148 L86.9212,10.4106667 L86.9358667,10.3613333 C87.3892,8.96266667 86.8398667,7.63866667 85.5345333,6.988 C83.8745333,6.16133333 82.1425333,6.95066667 81.1212,8.99866667 C80.5665333,10.1133333 80.4252,11.2186667 80.7265333,12.1106667" id="Fill-92" fill="#1C1F28"></path>
                            <path d="M105.7748,24.9284 L106.5308,25.9564 C106.932133,26.5017333 107.0748,27.0897333 106.9428,27.6577333 C106.804133,28.2577333 106.377467,28.8244 105.6748,29.3417333 C104.197467,30.4230667 103.040133,30.3470667 102.1348,29.1124 L101.413467,28.1337333 L105.7748,24.9284 Z M100.136133,27.9070667 L101.4388,29.6844 C102.1028,30.5870667 102.913467,31.0417333 103.8188,31.0417333 C104.569467,31.0417333 105.384133,30.7310667 106.2348,30.1084 C107.993467,28.8150667 108.4068,26.9937333 107.285467,25.4684 L105.973467,23.6830667 L105.9428,23.6404 L100.1788,27.8764 L100.136133,27.9070667 Z" id="Fill-94" fill="#1C1F28"></path>
                            <path d="M105.850267,33.9973333 C106.044933,33.3186667 106.620933,32.6973333 107.516933,32.204 C108.156933,31.848 108.776933,31.6626667 109.3276,31.6626667 C109.430267,31.6626667 109.528933,31.6693333 109.624933,31.6813333 C110.236933,31.7613333 110.7236,32.096 111.032933,32.6506667 C111.3396,33.2053333 111.3676,33.7973333 111.108933,34.3586667 C110.850267,34.9253333 110.3116,35.4493333 109.548933,35.8706667 C108.008933,36.728 106.6596,36.5573333 106.0316,35.424 C105.7716,34.9586667 105.7116,34.4773333 105.850267,33.9973333 M105.082267,33.4213333 C104.7556,34.232 104.812933,35.0746667 105.2476,35.86 C105.786267,36.8306667 106.7076,37.336 107.7876,37.336 C108.482267,37.336 109.242267,37.128 110.010267,36.7013333 C111.9756,35.612 112.702267,33.808 111.8196,32.2146667 C110.934267,30.6213333 109.020933,30.2853333 107.0556,31.3733333 C106.0916,31.908 105.408933,32.616 105.082267,33.4213333" id="Fill-96" fill="#1C1F28"></path>
                            <path d="M101.705733,20.8476 L99.9430667,24.2476 L98.2044,22.4049333 L101.705733,20.8476 Z M95.3324,22.6702667 L96.0017333,23.3796 L97.3857333,22.7609333 L99.5324,25.0369333 L98.8470667,26.3476 L98.8297333,26.3809333 L99.5017333,27.0942667 L102.965733,20.2876 L102.9844,20.2542667 L102.373733,19.6049333 L95.4017333,22.6396 L95.3324,22.6702667 Z" id="Fill-98" fill="#1C1F28"></path>
                        </g>
                    </g>
                </g>
            </g>
        </g>
    </g>
</svg>