<?xml version="1.0" encoding="UTF-8"?>
<svg width="128px" height="128px" viewBox="0 0 128 128" version="1.1" xmlns="http://www.w3.org/2000/svg" xmlns:xlink="http://www.w3.org/1999/xlink">
    <title>825B8C0C-5439-4D7C-A079-56C5216CDB91</title>
    <defs>
        <polygon id="path-1" points="1.19729412 0 7.35033013 0 7.35033013 7.57013427 1.19729412 7.57013427"></polygon>
        <polygon id="path-3" points="0 0.556133333 116.931867 0.556133333 116.931867 73.3333333 0 73.3333333"></polygon>
    </defs>
    <g id="r8" stroke="none" stroke-width="1" fill="none" fill-rule="evenodd">
        <g id="PDP-commerce-default" transform="translate(-195.000000, -8405.000000)">
            <g id="8.-section/mobile/4.-footer/sellos" transform="translate(0.000000, 8261.000000)">
                <g id="3.-icons/seal/bloque3/noanimaltested" transform="translate(195.000000, 144.000000)">
                    <g id="elements" transform="translate(5.333333, 4.000000)">
                        <g id="Group-86" transform="translate(0.000000, 0.000667)">
                            <path d="M112.712267,36.4882667 C111.8096,36.8589333 111.5496,37.5989333 111.6816,39.4149333 L111.6816,39.4162667 C111.814933,40.9229333 111.6416,41.5216 110.996267,41.7882667 C110.7616,41.8869333 110.510933,41.8869333 110.276267,41.7882667 C109.9096,41.6362667 109.5896,41.2642667 109.3736,40.7389333 C108.890933,39.5696 109.174933,38.7442667 110.2696,38.1442667 L110.318933,38.1176 L109.8376,37.3496 L109.8096,37.3069333 L109.766933,37.3309333 C108.2976,38.1056 107.860267,39.4362667 108.5336,41.0762667 C108.986933,42.1656 109.804267,42.7989333 110.6656,42.7989333 C110.8976,42.7989333 111.132267,42.7522667 111.364267,42.6576 C112.4176,42.2229333 112.7536,41.3322667 112.602933,39.3682667 C112.4816,38.0282667 112.592267,37.5589333 113.0736,37.3602667 C113.652267,37.1229333 114.240267,37.4656 114.562933,38.2429333 C114.908267,39.0829333 114.682933,39.8216 113.908267,40.3776 L113.866933,40.4069333 L114.404267,41.1896 L114.446933,41.1616 C115.546933,40.4496 115.920267,39.1722667 115.400267,37.9069333 C115.142933,37.2856 114.748267,36.8189333 114.260267,36.5602667 C113.774933,36.3029333 113.226933,36.2762667 112.712267,36.4882667" id="Fill-2" fill="#1C1F28"></path>
                            <polygon id="Fill-4" fill="#1C1F28" points="10.4830667 78.0638667 10.8030667 79.0998667 17.6750667 76.9572 17.7257333 76.9412 17.4417333 76.0318667 11.9897333 77.7305333 16.4724 73.0172 16.4937333 72.9945333 16.1724 71.9692 9.30306667 74.1105333 9.2524 74.1265333 9.53506667 75.0278667 14.9817333 73.3292 10.5044 78.0412"></polygon>
                            <path d="M52.0976,105.462267 L53.3762667,105.600933 C54.7909333,105.7516 55.4962667,106.8236 55.3122667,108.542267 C55.2096,109.492933 54.9269333,110.180933 54.4709333,110.5836 C54.0469333,110.956933 53.4882667,111.096933 52.7336,111.018267 L51.5149333,110.888933 L52.0976,105.462267 Z M53.5242667,104.7076 L51.3056,104.470267 L51.2536,104.464933 L50.4842667,111.632933 L50.4789333,111.684933 L52.6896,111.924933 C52.8562667,111.940933 53.0176,111.950267 53.1749333,111.950267 C53.9402667,111.950267 54.5802667,111.736933 55.0816,111.3116 C55.7349333,110.758267 56.1309333,109.860933 56.2616,108.642267 C56.3789333,107.546267 56.1749333,106.598267 55.6722667,105.896933 C55.1816,105.2156 54.4402667,104.804933 53.5242667,104.7076 L53.5242667,104.7076 Z" id="Fill-6" fill="#1C1F28"></path>
                            <polygon id="Fill-8" fill="#1C1F28" points="39.2877333 108.5 40.1757333 108.853333 42.5250667 102.942667 44.5970667 103.765333 44.9290667 102.925333 39.9477333 100.945333 39.8984 100.925333 39.5650667 101.765333 41.6397333 102.589333 39.3077333 108.450667"></polygon>
                            <polygon id="Fill-10" fill="#1C1F28" points="31.5390667 100.6172 31.5817333 100.647867 32.0684 100.003867 32.1004 99.9612 29.5750667 98.0532 30.8897333 96.3118667 33.5990667 98.3625333 33.6417333 98.3932 34.1550667 97.7158667 34.1857333 97.6732 30.7257333 95.0572 30.6817333 95.0265333 26.3430667 100.767867 26.3110667 100.811867 29.7724 103.426533 29.8150667 103.458533 30.3284 102.7812 30.3590667 102.738533 27.6070667 100.6572 29.0577333 98.7412"></polygon>
                            <path d="M37.3972,102.109333 L38.2998667,102.397333 L38.3158667,102.348 C38.7465333,101.106667 38.2532,99.8693333 37.0612,99.196 C35.8625333,98.5226667 34.6332,98.7413333 34.0678667,99.7333333 C33.5878667,100.585333 33.8372,101.328 35.0638667,102.676 C36.1092,103.798667 36.3332,104.356 35.9852,104.970667 C35.6558667,105.549333 34.8985333,105.62 34.0585333,105.142667 C32.9598667,104.52 32.6745333,103.693333 33.1625333,102.545333 L33.1852,102.493333 L32.3345333,102.185333 L32.2878667,102.169333 L32.2678667,102.213333 C31.5892,103.733333 32.0638667,105.049333 33.6052,105.922667 C34.1265333,106.217333 34.6478667,106.368 35.1372,106.368 C35.2518667,106.368 35.3652,106.36 35.4758667,106.344 C36.0598667,106.253333 36.5225333,105.936 36.8118667,105.424 C37.3732,104.432 37.0878667,103.524 35.7572,102.072 C34.8372,101.088 34.6358667,100.649333 34.8918667,100.196 C35.0172,99.9733333 35.2065333,99.8213333 35.4438667,99.7546667 C35.7745333,99.668 36.1892,99.7413333 36.6078667,99.976 C37.3985333,100.421333 37.6758667,101.142667 37.4118667,102.06 L37.3972,102.109333 Z" id="Fill-12" fill="#1C1F28"></path>
                            <path d="M96.4713333,85.2812 L100.223333,86.1305333 L98.874,88.2852 L96.4713333,85.2812 Z M102.542,86.6572 L102.578,86.6652 L103.099333,85.8358667 L95.61,84.1985333 L95.5713333,84.1918667 L95.1206667,84.9158667 L95.102,84.9478667 L99.8126667,90.9478667 L99.8593333,91.0078667 L100.362,90.2078667 L100.382,90.1758667 L99.426,88.9892 L101.091333,86.3278667 L102.542,86.6572 Z" id="Fill-14" fill="#1C1F28"></path>
                            <polygon id="Fill-16" fill="#1C1F28" points="88.7656 102.248667 89.6122667 101.660667 89.6562667 101.628667 85.5336 95.7233333 85.5029333 95.6793333 84.7642667 96.1913333 84.7202667 96.222 87.9896 100.911333 82.1362667 98.058 82.1082667 98.046 81.2282667 98.662 85.3482667 104.566 85.3789333 104.61 86.1536 104.068667 82.8829333 99.3833333 88.7376 102.235333"></polygon>
                            <path d="M39.9153333,57.2838667 C39.4286667,57.2838667 39.0326667,57.6785333 39.0326667,58.1638667 C39.0326667,58.6518667 39.4286667,59.0505333 39.9153333,59.0505333 C40.4033333,59.0505333 40.8006667,58.6518667 40.8006667,58.1638667 C40.8006667,57.6785333 40.4033333,57.2838667 39.9153333,57.2838667" id="Fill-18" fill="#1C1F28"></path>
                            <path d="M78.9270667,105.466133 L78.4484,101.643467 L81.2084,104.330133 L78.9270667,105.466133 Z M82.9110667,105.995467 L82.9390667,106.023467 L83.8190667,105.5848 L78.2750667,100.267467 L78.2484,100.2408 L77.4484,100.639467 L78.3350667,108.234133 L78.3444,108.310133 L79.2257333,107.871467 L79.0297333,106.3568 L81.8470667,104.955467 L82.9110667,105.995467 Z" id="Fill-20" fill="#1C1F28"></path>
                            <polygon id="Fill-22" fill="#1C1F28" points="98.112 93.2734667 98.7453333 92.5614667 93.3613333 87.7788 93.3213333 87.7441333 92.5386667 88.6241333 92.516 88.6494667 95.1933333 94.0908 89.5066667 92.0894667 89.4733333 92.0788 88.7013333 92.9454667 88.6666667 92.9841333 94.0533333 97.7641333 94.092 97.8001333 94.7186667 97.0948 90.5013333 93.3521333 96.24 95.3321333 96.272 95.3441333 96.5573333 95.0241333 93.8986667 89.5321333 98.0733333 93.2388"></polygon>
                            <path d="M63.3645333,111.2604 C62.1832,111.2604 61.3605333,110.259067 61.1938667,108.5924 C61.0178667,106.825733 61.7152,105.647067 63.0098667,105.517733 C63.0845333,105.511067 63.1578667,105.507067 63.2285333,105.507067 C63.7738667,105.507067 64.2512,105.719067 64.6205333,106.127067 C65.0432,106.593733 65.3112,107.301733 65.3965333,108.175067 C65.5018667,109.1964 65.3178667,110.0284 64.8672,110.5804 C64.5485333,110.971067 64.1152,111.195067 63.5818667,111.2484 C63.5072,111.2564 63.4365333,111.2604 63.3645333,111.2604 M63.2418667,104.603067 C63.1365333,104.603067 63.0298667,104.6084 62.9205333,104.619067 C62.0205333,104.7084 61.2898667,105.1444 60.8085333,105.8804 C60.3285333,106.6124 60.1325333,107.583067 60.2418667,108.687067 C60.3658667,109.9204 60.8418667,110.933733 61.5845333,111.5404 C62.0858667,111.949733 62.6912,112.161733 63.3498667,112.161733 C63.4552,112.161733 63.5632,112.1564 63.6712,112.145733 C64.5712,112.0564 65.3018667,111.621733 65.7832,110.885733 C66.2645333,110.155067 66.4592,109.183067 66.3485333,108.079067 C66.2378667,106.973733 65.8552,106.061733 65.2405333,105.439067 C64.6978667,104.8884 64.0112,104.603067 63.2418667,104.603067" id="Fill-24" fill="#1C1F28"></path>
                            <polygon id="Fill-26" fill="#1C1F28" points="105.048133 33.6874667 107.137467 37.4968 107.164133 37.5448 107.9548 37.1088 106.297467 34.0821333 108.408133 32.9261333 109.9028 35.6581333 109.928133 35.7048 110.6868 35.2888 109.165467 32.5114667 111.077467 31.4634667 112.7108 34.4461333 112.737467 34.4928 113.5308 34.0581333 111.441467 30.2488 111.4148 30.2021333 105.0948 33.6608"></polygon>
                            <polygon id="Fill-28" fill="#1C1F28" points="72.9049333 110.182267 73.9022667 109.9196 73.9542667 109.904933 72.1129333 102.9556 72.0996 102.9036 71.2289333 103.132933 71.1769333 103.1476 72.6382667 108.660933 68.1262667 103.984933 68.1049333 103.960933 67.1209333 104.220933 67.0689333 104.2356 68.9076 111.1876 68.9222667 111.2396 69.7822667 111.0116 69.8329333 110.996933 68.3729333 105.480933 72.8836 110.158267"></polygon>
                            <path d="M77.9674667,53.2617333 C78.5834667,52.0337333 79.8368,51.2430667 81.1714667,51.2430667 C83.1634667,51.2430667 84.7848,52.8644 84.7848,54.8577333 C84.7848,56.6430667 83.4874667,58.1217333 81.6914667,58.3870667 C80.8368,56.4377333 79.5501333,54.6670667 77.9674667,53.2617333 M47.6634667,67.5484 C46.3888,68.2644 45.0528,68.7684 43.6941333,69.0470667 C39.4488,69.9177333 35.7154667,68.4937333 34.1754667,65.4244 C32.0674667,61.2364 34.7194667,55.3817333 40.0874667,52.3724 C42.1488,51.2190667 44.3541333,50.6230667 46.4368,50.6230667 C47.4314667,50.6230667 48.3968,50.7577333 49.3061333,51.0337333 C51.2648,51.6337333 52.7408,52.8310667 53.5754667,54.4937333 C55.6861333,58.6830667 53.0341333,64.5390667 47.6634667,67.5484 M65.1154667,50.5257333 C61.5448,53.0470667 58.1568,54.6457333 55.0434667,55.2790667 L55.0368,55.2550667 C54.9141333,54.8337333 54.7888,54.3964 54.5861333,53.9870667 C53.8474667,52.5204 52.7061333,51.3790667 51.1874667,50.5924 C52.7914667,47.7230667 55.5141333,44.9204 59.2821333,42.2604 C63.1061333,39.5617333 66.6914667,37.9230667 69.9381333,37.3910667 C72.4821333,36.9697333 74.0821333,37.3750667 74.6861333,37.5830667 C74.6781333,38.2217333 74.5194667,39.8644 73.2728,42.1230667 C71.6834667,45.0017333 68.9394667,47.8284 65.1154667,50.5257333 M63.2634667,69.6150667 L63.3168,69.6150667 L63.3168,68.4844 L63.2634667,68.4844 C57.9021333,68.4844 53.4794667,72.6844 53.1728,78.0564 L40.9194667,78.0670667 C40.9794667,76.6457333 41.4221333,73.1497333 44.1368,70.0897333 C45.5554667,69.7764 46.9288,69.2524 48.2154667,68.5310667 C53.0448,65.8270667 55.9461333,60.8364 55.2901333,56.3777333 C58.5528,55.7097333 62.0781333,54.0510667 65.7674667,51.4484 C65.8968,51.3564 66.0168,51.2657333 66.1328,51.1777333 C66.2141333,51.1150667 66.2954667,51.0524 66.3821333,50.9897333 C67.1234667,50.8604 67.8648,50.7950667 68.5861333,50.7950667 C75.8928,50.7950667 81.8381333,56.9110667 81.8381333,64.4297333 C81.8381333,71.8030667 76.2208,77.7830667 69.0501333,78.0430667 L54.3021333,78.0537333 C54.6074667,73.3164 58.5341333,69.6150667 63.2634667,69.6150667 M82.9661333,64.4297333 C82.9661333,62.7604 82.6808,61.0977333 82.1168,59.4870667 C84.3208,59.0390667 85.9128,57.1030667 85.9128,54.8577333 C85.9128,52.2417333 83.7861333,50.1150667 81.1714667,50.1150667 C79.5048,50.1150667 77.9448,51.0457333 77.0874667,52.5497333 C74.5981333,50.6630667 71.6594667,49.6657333 68.5861333,49.6657333 C68.4461333,49.6657333 68.3074667,49.6817333 68.1728,49.6990667 L68.0488,49.7150667 C76.4914667,42.8457333 75.8274667,37.3457333 75.7941333,37.1150667 L75.7568,36.8590667 L75.7514667,36.8337333 L75.4968,36.6977333 C75.2608,36.5697333 69.5088,33.6657333 58.6328,41.3404 C54.6714667,44.1350667 51.8114667,47.1017333 50.1314667,50.1577333 C50.0714667,50.1337333 50.0114667,50.1084 49.9528,50.0804 C49.8528,50.0364 49.7514667,49.9910667 49.6394667,49.9564 C46.5394667,49.0110667 42.8568,49.5324 39.5381333,51.3884 C33.6528,54.6857333 30.7928,61.2097333 33.1648,65.9310667 C34.5821333,68.7484 37.6114667,70.4297333 41.2714667,70.4297333 C41.5901333,70.4297333 41.9248,70.3830667 42.2488,70.3377333 C42.3501333,70.3230667 42.4514667,70.3084 42.5528,70.2950667 C39.5888,74.3084 39.7848,78.6177333 39.7874667,78.6604 L39.8194667,79.1937333 L40.3528,79.1937333 L68.6328,79.1937333 L69.0994667,79.1684 C76.8754667,78.8897333 82.9661333,72.4150667 82.9661333,64.4297333" id="Fill-30" fill="#1C1F28"></path>
                            <polygon id="Fill-32" fill="#1C1F28" points="23.2174667 98.0013333 27.6761333 93.4706667 29.2254667 94.9946667 29.2628 95.032 29.8988 94.388 26.0788 90.6306667 26.0414667 90.592 25.4068 91.2346667 26.9948 92.8 22.5748 97.2933333 22.5361333 97.3306667 23.1801333 97.964"></polygon>
                            <polygon id="Fill-34" fill="#1C1F28" points="34.1472 13.0142667 38.1072 11.2102667 38.1552 11.1889333 37.7792 10.3676 34.6298667 11.8022667 33.6298667 9.6076 36.4672 8.31293333 36.5152 8.29026667 36.1578667 7.50493333 33.2725333 8.82226667 32.3645333 6.83293333 35.4645333 5.42093333 35.5125333 5.39826667 35.1392 4.57426667 31.1792 6.3796 31.1312 6.40226667 34.1245333 12.9662667"></polygon>
                            <path d="M23.4896,15.7396 L23.4909333,15.7396 C24.9402667,15.2156 25.5416,15.2289333 25.9696,15.7956 C26.1256,15.9982667 26.1882667,16.2422667 26.1536,16.4956 C26.1002667,16.8889333 25.8202667,17.2942667 25.3669333,17.6369333 C24.3602667,18.4076 23.4856,18.3422667 22.6202667,17.4342667 L22.5802667,17.3929333 L21.9282667,18.0942667 L21.9616,18.1302667 C22.5656,18.7862667 23.2456,19.1142667 23.9656,19.1142667 C24.5922667,19.1142667 25.2482667,18.8649333 25.9069333,18.3649333 C27.1216,17.4396 27.4469333,16.1742667 26.7176,15.2142667 C26.0229333,14.3049333 25.0736,14.2102667 23.2122667,14.8596 C21.9402667,15.3222667 21.4589333,15.3329333 21.1429333,14.9156 C20.9869333,14.7116 20.9216,14.4742667 20.9549333,14.2289333 C21.0016,13.8849333 21.2376,13.5369333 21.6189333,13.2476 C22.3402667,12.6942667 23.1136,12.7236 23.8536,13.3329333 L23.8949333,13.3662667 L24.5176,12.6476 L24.4789333,12.6116 C23.5042667,11.7236 22.1709333,11.6902667 21.0776,12.5209333 C19.9789333,13.3569333 19.6962667,14.5769333 20.3882667,15.4902667 C20.9802667,16.2689333 21.7629333,16.3329333 23.4896,15.7396" id="Fill-36" fill="#1C1F28"></path>
                            <path d="M42.3918667,7.33853333 L39.9638667,8.1132 L40.0678667,4.25986667 L42.3918667,7.33853333 Z M39.8932,10.5345333 L39.9318667,9.01053333 L42.9265333,8.05053333 L43.8225333,9.24253333 L43.8465333,9.27186667 L44.7812,8.97453333 L40.1092,2.8772 L40.0865333,2.84786667 L39.2358667,3.11986667 L38.9612,10.7598667 L38.9585333,10.8358667 L39.8585333,10.5465333 L39.8932,10.5345333 Z" id="Fill-38" fill="#1C1F28"></path>
                            <polygon id="Fill-40" fill="#1C1F28" points="27.0417333 9.74866667 30.2617333 15.1553333 30.2897333 15.2006667 31.1057333 14.714 27.8604 9.26066667 29.7257333 8.15 29.7710667 8.122 29.3097333 7.346 24.7137333 10.086 24.6684 10.1126667 25.1284 10.886"></polygon>
                            <path d="M46.5026667,7.69146667 L45.4853333,2.35146667 L46.744,2.11013333 C47.36,1.9968 47.9026667,2.0848 48.348,2.3888 C48.8893333,2.7568 49.2666667,3.4368 49.4413333,4.3528 C49.7853333,6.15813333 49.216,7.17546667 47.7026667,7.4648 L46.5026667,7.69146667 Z M45.7453333,8.75413333 L47.92,8.33946667 C48.8906667,8.15546667 49.6,7.72346667 50.028,7.0608 C50.4893333,6.3448 50.6066667,5.37413333 50.3773333,4.17413333 C49.9653333,2.0208 48.496,0.8568 46.6253333,1.21813333 L44.4426667,1.63013333 L44.3906667,1.63946667 L45.736,8.70213333 L45.7453333,8.75413333 Z" id="Fill-42" fill="#1C1F28"></path>
                            <g id="Group-46" transform="translate(50.666667, 0.000000)">
                                <mask id="mask-2" fill="white">
                                    <use xlink:href="#path-1"></use>
                                </mask>
                                <g id="Clip-45"></g>
                                <path d="M4.10026667,0.9088 C4.1456,0.906133333 4.19093333,0.9048 4.2376,0.9048 C4.81626667,0.9048 5.31626667,1.1368 5.68693333,1.57946667 C6.0896,2.06213333 6.33093333,2.77946667 6.38426667,3.65546667 C6.43893333,4.53013333 6.28693333,5.27146667 5.94426667,5.8008 C5.6056,6.3248 5.0896,6.62213333 4.45093333,6.6608 C4.4056,6.66346667 4.35893333,6.6648 4.3136,6.6648 C3.0896,6.6648 2.2696,5.6248 2.16293333,3.91413333 C2.05493333,2.13946667 2.79626667,0.9888 4.10026667,0.9088 M4.3096,7.57013427 C4.37493333,7.57013427 4.44026667,7.5688 4.5056,7.5648 L4.50693333,7.5648 C6.34026667,7.45013333 7.4776,5.85546667 7.33893333,3.59813333 C7.27093333,2.4888 6.92293333,1.5608 6.33226667,0.914133333 C5.73893333,0.266133333 4.94293333,-0.0485333333 4.04426667,0.0048 C2.21093333,0.1168 1.07226667,1.71146667 1.20826667,3.97146667 C1.34293333,6.15013333 2.57893333,7.57146667 4.3096,7.57013427" id="Fill-44" fill="#1C1F28" mask="url(#mask-2)"></path>
                            </g>
                            <path d="M10.8568,61.5390667 C10.8568,63.3004 10.9848,65.1964 11.2448,67.3364 L11.2514667,67.3897333 L12.3728,67.2510667 L12.3661333,67.1977333 C12.1101333,65.1137333 11.9874667,63.2630667 11.9874667,61.5390667 C11.9874667,35.9124 32.8368,15.0644 58.4648,15.0644 C84.0968,15.0644 104.947467,35.9124 104.947467,61.5390667 C104.947467,63.2790667 104.827467,65.0764 104.567467,67.2004 L104.5608,67.2537333 L105.683467,67.3897333 L105.690133,67.3364 C105.9528,65.1524 106.0768,63.3097333 106.0768,61.5390667 C106.0768,35.2897333 84.7181333,13.9324 58.4648,13.9324 C32.2141333,13.9324 10.8568,35.2897333 10.8568,61.5390667" id="Fill-47" fill="#1C1F28"></path>
                            <g id="Group-51" transform="translate(0.000000, 46.666667)">
                                <mask id="mask-4" fill="white">
                                    <use xlink:href="#path-3"></use>
                                </mask>
                                <g id="Clip-50"></g>
                                <path d="M115.171867,0.608133333 L115.158533,0.556133333 L114.063867,0.833466667 L114.0772,0.885466667 C115.223867,5.45346667 115.8052,10.1601333 115.8052,14.8721333 C115.8052,46.4854667 90.0825333,72.2054667 58.4652,72.2054667 C26.8505333,72.2054667 1.1292,46.4854667 1.1292,14.8721333 C1.1292,10.1614667 1.7092,5.45613333 2.85586667,0.885466667 L2.86786667,0.833466667 L1.77586667,0.556133333 L1.76253333,0.608133333 C0.5932,5.26546667 -0.000133333333,10.0654667 -0.000133333333,14.8721333 C-0.000133333333,47.1081333 26.2278667,73.3334667 58.4652,73.3334667 C90.7038667,73.3334667 116.931867,47.1081333 116.931867,14.8721333 C116.931867,10.0721333 116.339867,5.27213333 115.171867,0.608133333" id="Fill-49" fill="#1C1F28" mask="url(#mask-4)"></path>
                            </g>
                            <polygon id="Fill-52" fill="#1C1F28" points="19.6341333 23.6354667 22.7808 20.6381333 22.8208 20.6008 22.1941333 19.9434667 19.6928 22.3288 18.0328 20.5848 20.2888 18.4368 20.3288 18.3981333 19.7328 17.7741333 17.4381333 19.9581333 15.9314667 18.3794667 18.3941333 16.0314667 18.4341333 15.9941333 17.8488 15.3794667 17.8114667 15.3394667 14.6621333 18.3381333 14.6234667 18.3768 19.5968 23.5968"></polygon>
                            <polygon id="Fill-54" fill="#1C1F28" points="7.8216 42.0338667 2.5416 39.8098667 9.02826667 39.1005333 9.06026667 39.0965333 9.48426667 38.0938667 2.7856 35.2698667 2.4136 36.1525333 7.69093333 38.3765333 1.20693333 39.0885333 1.17626667 39.0925333 0.756266667 40.0845333 7.45626667 42.9058667"></polygon>
                            <path d="M6.0156,30.9193333 C6.67026667,29.7966667 8.0276,29.654 9.55693333,30.5473333 C10.4462667,31.066 11.0116,31.7046667 11.1916,32.3913333 C11.3196,32.8766667 11.2462667,33.3553333 10.9769333,33.8166667 C10.6542667,34.3673333 10.1582667,34.694 9.54093333,34.7606667 C8.92093333,34.83 8.1876,34.6286667 7.4316,34.1886667 C6.67693333,33.7473333 6.1476,33.2113333 5.8996,32.634 C5.65426667,32.0633333 5.69426667,31.47 6.0156,30.9193333 M6.95026667,35.01 C7.72893333,35.466 8.52226667,35.702 9.25426667,35.702 C9.52626667,35.702 9.78893333,35.67 10.0409333,35.6033333 C10.7662667,35.4126667 11.3596,34.9526667 11.7556,34.2753333 C12.2102667,33.4953333 12.2876,32.6486667 11.9769333,31.8286667 C11.6662667,31.0113333 10.9969333,30.2833333 10.0422667,29.726 C9.08626667,29.1686667 8.1276,28.9366667 7.25826667,29.0726667 C6.38893333,29.206 5.6916,29.686 5.23693333,30.4646667 C4.8396,31.1446667 4.73026667,31.8873333 4.92093333,32.6126667 C5.16226667,33.5366667 5.8836,34.39 6.95026667,35.01" id="Fill-56" fill="#1C1F28"></path>
                            <polygon id="Fill-58" fill="#1C1F28" points="11.8333333 22.8828 16.6386667 26.9428 16.68 26.9774667 17.26 26.2908 17.296 26.2494667 12.4493333 22.1548 13.8493333 20.4974667 13.884 20.4574667 13.2346667 19.9108 13.1946667 19.8748 9.744 23.9574667 9.708 23.9974667 10.396 24.5801333"></polygon>
                            <path d="M107.161467,76.2942667 C107.6028,74.8609333 107.117467,73.6142667 105.981467,73.2662667 C104.8868,72.9316 104.0588,73.4076 102.9268,75.0209333 C102.161467,76.1356 101.777467,76.4262667 101.281467,76.2729333 C101.0348,76.1982667 100.844133,76.0436 100.728133,75.8249333 C100.565467,75.5196 100.553467,75.0996 100.693467,74.6422667 C100.9428,73.8262667 101.5228,73.3996 102.3788,73.3996 C102.437467,73.3996 102.497467,73.4022667 102.5588,73.4062667 L102.6108,73.4089333 L102.692133,72.5156 L102.696133,72.4636 L102.645467,72.4569333 C102.532133,72.4436 102.421467,72.4369333 102.312133,72.4369333 C101.152133,72.4369333 100.1988,73.1662667 99.8321333,74.3662667 C99.6334667,75.0116 99.6414667,75.6236 99.8548,76.1369333 C100.065467,76.6449333 100.473467,77.0142667 101.005467,77.1769333 C101.944133,77.4716 102.6148,77.0609333 103.669467,75.5702667 C104.541467,74.3036 105.033467,73.9569333 105.713467,74.1716 C105.9588,74.2476 106.152133,74.4076 106.272133,74.6356 C106.457467,74.9862667 106.4668,75.4769333 106.300133,76.0182667 C105.9268,77.2302667 105.173467,77.6862667 103.952133,77.4569333 L103.896133,77.4462667 L103.772133,78.3956 L103.821467,78.4062667 C104.077467,78.4596 104.321467,78.4862667 104.5548,78.4862667 C105.808133,78.4862667 106.721467,77.7276 107.161467,76.2942667" id="Fill-60" fill="#1C1F28"></path>
                            <polygon id="Fill-62" fill="#1C1F28" points="66.7030667 7.87893333 66.7990667 6.9816 63.3617333 6.61226667 63.6190667 4.21493333 66.7204 4.5496 66.7724 4.55493333 66.8604 3.74826667 66.8657333 3.69626667 63.7124 3.35893333 63.9430667 1.18693333 67.3310667 1.5496 67.3830667 1.55493333 67.4777333 0.654933333 63.1537333 0.190933333 63.1017333 0.1856 62.3310667 7.35493333 62.3257333 7.40693333 66.6510667 7.8736"></polygon>
                            <polygon id="Fill-64" fill="#1C1F28" points="103.884133 84.2096 105.596133 80.4549333 105.6188 80.4056 104.797467 80.0296 103.453467 82.9736 97.7108 80.3536 97.6628 80.3322667 97.2708 81.1909333 103.836133 84.1869333"></polygon>
                            <polygon id="Fill-66" fill="#1C1F28" points="102.0248 29.1797333 104.3648 32.5557333 104.395467 32.5997333 105.0928 32.1184 105.1368 32.0877333 103.3008 29.4397333 108.4688 25.8584 108.5128 25.8264 108.007467 25.0970667 107.9768 25.0530667 102.0688 29.1490667"></polygon>
                            <path d="M103.891867,22.1133333 L101.9812,25.4586667 L100.310533,23.536 L103.891867,22.1133333 Z M97.4185333,23.684 L98.0612,24.4253333 L99.4745333,23.86 L101.5372,26.232 L100.798533,27.5226667 L100.779867,27.5546667 L101.422533,28.2973333 L105.1972,21.5706667 L104.610533,20.8973333 L97.4878667,23.656 L97.4185333,23.684 Z" id="Fill-68" fill="#1C1F28"></path>
                            <polygon id="Fill-70" fill="#1C1F28" points="91.4713333 100.044267 92.182 99.4216 87.43 94.0082667 87.394 93.9669333 86.6846667 94.5909333 91.4366667 100.004267"></polygon>
                            <polygon id="Fill-72" fill="#1C1F28" points="16.8502667 90.5325333 22.0822667 86.9485333 23.3116 88.7365333 23.3409333 88.7818667 24.0862667 88.2725333 21.0622667 83.8618667 21.0329333 83.8178667 20.2876 84.3272 21.5449333 86.1605333 16.3542667 89.7178667 16.3102667 89.7472 16.8209333 90.4885333"></polygon>
                            <path d="M13.6237333,83.6054667 C13.0490667,82.4361333 13.6797333,81.2228 15.2690667,80.4374667 C16.8610667,79.6521333 18.2077333,79.8881333 18.7850667,81.0588 C19.3597333,82.2254667 18.7290667,83.4388 17.1397333,84.2241333 C15.5450667,85.0108 14.1984,84.7721333 13.6237333,83.6054667 M15.4704,85.6134667 C16.1210667,85.6134667 16.8344,85.4388 17.5624,85.0801333 C18.6730667,84.5321333 19.4530667,83.7308 19.7597333,82.8228 C19.9997333,82.1121333 19.9424,81.3628 19.5944,80.6588 C18.7837333,79.0174667 16.8757333,78.5841333 14.8464,79.5814667 C12.8210667,80.5828 12.0050667,82.3601333 12.8157333,84.0054667 C13.3357333,85.0588 14.3064,85.6134667 15.4704,85.6134667" id="Fill-74" fill="#1C1F28"></path>
                            <path d="M79.0585333,8.88146667 L81.6332,6.02013333 L81.4078667,9.8628 L79.0585333,8.88146667 Z M77.4372,10.6801333 L78.4545333,9.54413333 L81.3532,10.7521333 L81.2638667,12.2401333 L81.2612,12.2774667 L82.1678667,12.6521333 L82.5598667,4.99213333 L82.5612,4.9548 L81.7718667,4.6228 L81.7372,4.60813333 L76.5825333,10.2441333 L76.5305333,10.3001333 L77.4025333,10.6654667 L77.4372,10.6801333 Z" id="Fill-76" fill="#1C1F28"></path>
                            <polygon id="Fill-78" fill="#1C1F28" points="70.1953333 2.71093333 72.0313333 8.9696 72.0393333 9.00026667 73.1006667 9.23893333 74.6926667 2.20693333 74.7046667 2.15493333 73.7726667 1.94293333 72.5073333 7.52826667 70.6713333 1.26826667 70.6646667 1.23893333 69.6126667 1.0016 68.0206667 8.03626667 68.0086667 8.08826667 68.9313333 8.29493333"></polygon>
                            <polygon id="Fill-80" fill="#1C1F28" points="91.4401333 18.3412 92.1534667 18.9638667 95.8508 14.7038667 93.9334667 20.4638667 93.9228 20.4972 94.2468 20.7798667 99.7134667 18.0572 96.0481333 22.2758667 96.0134667 22.3158667 96.7348 22.9438667 101.460133 17.5012 101.4948 17.4612 100.6068 16.6905333 100.5788 16.6665333 95.1628 19.4052 97.1041333 13.6918667 97.1161333 13.6572 96.2001333 12.8638667 91.4748 18.3012"></polygon>
                            <polygon id="Fill-82" fill="#1C1F28" points="89.914 17.3516 94.066 11.3996 93.2913333 10.8609333 89.1406667 16.8102667"></polygon>
                            <polygon id="Fill-84" fill="#1C1F28" points="86.7773333 8.67706667 86.6986667 15.1757333 86.6986667 15.2064 87.6386667 15.7437333 91.212 9.50773333 91.2386667 9.4624 90.4133333 8.98773333 87.5773333 13.9357333 87.6533333 7.43973333 87.6533333 7.40906667 86.724 6.87573333 83.152 13.1117333 83.1266667 13.1570667 83.944 13.6277333"></polygon>
                            <polygon id="Fill-1" fill="#1C1F28" points="49.9284 105.154933 50.1484 104.280267 45.9390667 103.220267 45.8870667 103.206933 44.1297333 110.1856 44.1177333 110.238933 48.3230667 111.2976 48.3750667 111.310933 48.5950667 110.434933 45.2510667 109.592267 45.8404 107.2616 48.9057333 108.034933 49.1164 107.1976 46.0497333 106.424267 46.5830667 104.312267"></polygon>
                        </g>
                    </g>
                </g>
            </g>
        </g>
    </g>
</svg>