<?xml version="1.0" encoding="utf-8"?>
<!-- Generator: Adobe Illustrator 22.0.1, SVG Export Plug-In . SVG Version: 6.00 Build 0)  -->
<svg version="1.1" id="Layer_1" xmlns="http://www.w3.org/2000/svg" xmlns:xlink="http://www.w3.org/1999/xlink" x="0px" y="0px"
	 viewBox="0 0 200 39" style="enable-background:new 0 0 200 39;" xml:space="preserve">
<style type="text/css">
	.st0{fill:#1C1F28;}
</style>
<title>52255F40-9EDE-4FF7-AEF1-34A5C4062274</title>
<title>52255F40-9EDE-4FF7-AEF1-34A5C4062274</title>
<path class="st0" d="M32.9,9.1h5.9L26.2,26.2v11h-5l0.1-11L8.6,9.1h6.1l9.1,12.8L32.9,9.1z M52.4,8.8H53l14.8,28.6h-5.7l-2.8-5.6
	H45.8L43,37.3h-5.5L52.4,8.8z M57.2,27.2L52.6,18h-0.1l-4.6,9.3H57.2z M92.6,26.6V9.1h5v28.6H97l-17.5-18v17.6h-5V8.8h0.6L92.6,26.6
	z M130.5,29.4c0,4.8-3.7,8-9.8,8h-10.8V9.1h10.4c5.5,0,9.4,2.8,9.4,7.5c0,2.8-1.7,4.9-4,6.1C128.6,23.9,130.5,26.1,130.5,29.4
	 M114.6,13.2v7.3h5.4c2.7,0,4.5-1,4.5-3.7s-1.8-3.6-4.5-3.6H114.6z M120.4,33c3.3,0,5.1-1.3,5.1-4c0-2.8-1.7-4-5.1-4h-5.8v8.2
	L120.4,33L120.4,33z M150.4,8.8h0.6l14.8,28.6H160l-2.8-5.6h-13.6l-2.8,5.6h-5.5L150.4,8.8z M155.2,27.2l-4.6-9.3h-0.1l-4.6,9.3
	H155.2z M178.6,32.8h12.3l-1.7,4.6h-15.4V9.1h5L178.6,32.8L178.6,32.8z"/>
</svg>
