<?xml version="1.0" encoding="UTF-8"?>
<svg width="20px" height="20px" viewBox="0 0 20 20" version="1.1" xmlns="http://www.w3.org/2000/svg" xmlns:xlink="http://www.w3.org/1999/xlink">
    <title>7C6DF95B-DB1E-4FCB-AF1E-3C24E2D58AF9</title>
    <g id="Yanbal-UI-Visual-Kit" stroke="none" stroke-width="1" fill="none" fill-rule="evenodd">
        <g id="03" transform="translate(-674.000000, -632.000000)" fill="#1C1F28">
            <g id="Outline" transform="translate(96.000000, 315.000000)">
                <g id="3.-icons/outline/icon-copy-copy-11" transform="translate(578.000000, 316.999500)">
                    <path d="M19,4.145 C18.984,4.63 18.934,5.262 18.677,5.832 C18.183,6.929 17.107,7.762 16,7.957 L16,7 L16,3 L19,3 L19,4.145 Z M10,12 C7.243,12 5,9.757 5,7 L5,2.5 L5,1 L15,1 L15,2.5 L15,7 C15,9.757 12.757,12 10,12 L10,12 Z M10.539,13 C10.624,13.672 10.898,14.906 11.775,16 L8.227,16 C9.104,14.906 9.377,13.672 9.462,13 L10.539,13 Z M13.5,19 L6.5,19 L6.5,17 L7,17 L13,17 L13.5,17 L13.5,19 Z M4,7.957 C2.892,7.762 1.817,6.929 1.323,5.832 C1.067,5.263 1.016,4.631 1,4.161 L1,3 L4,3 L4,7 L4,7.957 Z M19.5,2 L16,2 L16,0.5 C16,0.224 15.776,0 15.5,0 L4.5,0 C4.224,0 4,0.224 4,0.5 L4,2 L0.5,2 C0.224,2 0,2.224 0,2.5 L0,4.177 C0.019,4.756 0.083,5.514 0.411,6.243 C1.123,7.822 2.724,8.926 4.346,8.989 C5.002,10.85 6.55,12.291 8.477,12.797 C8.409,13.424 8.105,14.941 6.809,16 L6,16 C5.724,16 5.5,16.224 5.5,16.5 L5.5,19.5 C5.5,19.777 5.724,20 6,20 L14,20 C14.276,20 14.5,19.777 14.5,19.5 L14.5,16.5 C14.5,16.224 14.276,16 14,16 L13.191,16 C11.907,14.948 11.596,13.426 11.525,12.796 C13.451,12.29 14.998,10.85 15.654,8.989 C17.275,8.926 18.876,7.822 19.589,6.243 C19.918,5.512 19.981,4.755 20,4.161 L20,2.5 C20,2.224 19.776,2 19.5,2 L19.5,2 Z" id="Fill-1"></path>
                </g>
            </g>
        </g>
    </g>
</svg>